<?xml version="1.0" encoding="UTF-8" standalone="no"?>
<!DOCTYPE svg PUBLIC "-//W3C//DTD SVG 1.1//EN" "http://www.w3.org/Graphics/SVG/1.1/DTD/svg11.dtd">
<svg width="100%" height="100%" viewBox="0 0 669 446" version="1.1" xmlns="http://www.w3.org/2000/svg" xmlns:xlink="http://www.w3.org/1999/xlink" xml:space="preserve" xmlns:serif="http://www.serif.com/" style="fill-rule:evenodd;clip-rule:evenodd;stroke-linejoin:round;stroke-miterlimit:2;">
    <g transform="matrix(4.16667,0,0,4.16667,-1690.61,-478.131)">
        <path d="M561.264,154.662C560.98,154.699 560.695,154.723 560.41,154.747C560.467,154.7 560.516,154.642 560.548,154.573C560.578,154.507 560.505,154.449 560.449,154.496C560.314,154.61 560.165,154.674 559.99,154.617C559.778,154.548 559.687,154.306 559.777,154.109C559.793,154.073 559.789,154.039 559.781,154.007C561.179,153.75 562.525,153.318 563.681,152.567C563.631,152.671 563.578,152.78 563.519,152.899C562.694,154.562 562.819,154.459 561.264,154.662ZM556.675,154.871C556.533,154.873 556.39,154.869 556.248,154.87C556.232,154.706 556.202,154.547 556.164,154.39C556.759,154.357 557.366,154.316 557.975,154.256C557.974,154.288 557.973,154.32 557.972,154.352C557.968,154.518 557.952,154.69 557.958,154.858C557.53,154.864 557.101,154.868 556.675,154.871ZM548.075,154.514C547.215,154.435 546.359,154.332 545.505,154.218C548.677,154.524 551.872,154.597 555.055,154.445C555.302,154.433 555.554,154.421 555.807,154.408C555.826,154.545 555.844,154.681 555.852,154.82C555.853,154.836 555.851,154.852 555.852,154.868C553.256,154.866 550.661,154.754 548.075,154.514ZM521.557,164.969C519.674,166.034 517.781,167.081 515.885,168.122C516.172,167.4 516.353,166.659 516.439,165.908C521.94,163.611 527.336,161.049 532.418,157.997C532.452,158.16 532.491,158.318 532.52,158.485C528.904,160.709 525.253,162.878 521.557,164.969ZM509.457,171.602C508.512,170.986 507.567,170.37 506.621,169.756C509.432,168.709 512.247,167.629 515.042,166.486C514.818,167.376 514.461,168.239 514.098,169.101C513.586,169.381 513.075,169.664 512.562,169.943C511.816,170.35 510.227,170.811 509.457,171.602ZM530.186,195.641C530.147,195.616 530.108,195.585 530.069,195.56C529.963,195.491 529.873,195.655 529.972,195.727C529.974,195.729 529.976,195.731 529.979,195.733C529.821,195.805 529.662,195.879 529.509,195.94C528.101,196.504 522.623,198.811 519.01,199.36C513.578,197.726 508.362,194.768 503.588,192.062C502.085,191.21 500.593,190.339 499.1,189.47C499.117,189.402 499.131,189.334 499.15,189.267C499.197,189.099 498.94,189.029 498.891,189.195C498.878,189.238 498.867,189.285 498.855,189.328C498.461,189.099 498.063,188.875 497.669,188.644C497.693,188.352 497.72,188.06 497.743,187.768C497.757,187.605 497.509,187.609 497.491,187.768C497.464,188.011 497.441,188.253 497.414,188.496C494.059,186.525 490.736,184.502 487.431,182.448C488.288,179.496 497.865,177.873 499.687,177.476C501.649,177.049 503.612,176.622 505.574,176.195C507.307,175.818 509.649,174.93 511.543,174.892C519.534,180.753 527.181,187.1 534.926,193.373C533.379,193.854 531.694,194.927 530.186,195.641ZM536.703,193.681C536.738,193.94 536.739,194.197 536.725,194.451C536.378,194.17 536.032,193.889 535.686,193.607C536.068,193.563 536.412,193.581 536.703,193.681ZM535.176,197.774C534.715,196.751 533.802,195.862 532.928,195.226C532.859,195.176 532.772,195.289 532.837,195.345C533.319,195.767 533.765,196.234 534.146,196.751C534.445,197.158 534.672,197.599 534.929,198.026C534.479,198.46 533.971,198.84 533.43,199.148C532.816,197.81 531.579,196.62 530.408,195.796C531.727,195.124 533.727,193.994 535.294,193.671C535.762,194.049 536.229,194.428 536.697,194.806C536.627,195.308 536.469,195.795 536.241,196.259C536.033,195.822 535.86,195.373 535.722,194.91C535.664,194.718 535.37,194.798 535.421,194.993C535.561,195.518 535.742,196.133 536.005,196.686C535.772,197.073 535.493,197.437 535.176,197.774ZM535.889,207.62C535.72,207.686 535.551,207.751 535.383,207.817C535.044,207.528 534.694,207.247 534.338,206.97C534.242,206.895 534.105,207.026 534.202,207.107C534.521,207.373 534.835,207.64 535.14,207.911C529.482,210.143 524.018,212.72 518.783,215.804C518.051,215.407 517.323,215.002 516.603,214.585C515.677,214.05 514.763,213.499 513.852,212.941C513.922,212.869 513.995,212.798 514.057,212.714C514.128,212.617 513.99,212.492 513.895,212.553C513.781,212.626 513.668,212.694 513.555,212.76C513.099,212.48 512.646,212.198 512.193,211.914C512.224,211.892 512.255,211.868 512.288,211.847C512.369,211.795 512.338,211.668 512.24,211.666C512.112,211.664 511.997,211.686 511.89,211.724C511.504,211.481 511.118,211.237 510.733,210.992C516.039,208.292 521.557,205.903 526.719,202.985C526.542,203.085 526.617,203.377 526.823,203.372C527.105,203.364 527.387,203.357 527.669,203.349C527.818,203.345 527.867,203.098 527.706,203.076L527.567,202.887C527.741,202.763 527.594,202.504 527.399,202.6C521.779,205.361 516.104,207.968 510.56,210.882C510.379,210.767 510.198,210.652 510.018,210.536C509.761,209.951 509.489,209.35 509.473,209.321C509.406,209.192 509.34,209.064 509.273,208.935C509.953,207.444 510.26,205.449 510.66,203.962C511,202.701 511.334,201.434 511.621,200.158C512.924,200.605 514.239,201.012 515.572,201.357C517.09,201.75 518.689,202.077 520.32,202.306C519.143,203.185 518.024,204.155 516.82,205.003C514.526,206.621 512.077,207.969 509.522,209.124C509.428,209.167 509.51,209.303 509.603,209.262C512.169,208.131 514.635,206.809 516.94,205.209C518.222,204.321 519.406,203.291 520.649,202.351C523.289,202.697 526.009,202.768 528.616,202.39C530.769,204.346 533.512,205.869 535.889,207.62ZM540.946,211.934C540.115,211.77 539.3,211.617 538.487,211.304C538.293,211.23 538.214,211.537 538.402,211.613C539.282,211.968 540.267,212.297 541.236,212.339C541.321,212.469 541.401,212.6 541.47,212.734C541.98,213.717 542.029,214.553 541.784,215.268C540.663,214.727 539.61,214.152 538.622,213.359C538.528,211.109 537.281,209.495 535.695,208.088C535.9,208.031 536.102,207.974 536.281,207.924C536.508,208.097 536.739,208.268 536.957,208.447C538.17,209.444 539.9,210.591 540.946,211.934ZM540.548,216.895C539.79,216.55 539.039,216.224 538.309,215.828C538.509,215.145 538.625,214.434 538.632,213.69C539.52,214.472 540.531,215.174 541.629,215.629C541.384,216.109 541.005,216.528 540.548,216.895ZM536.973,218.68C537.486,217.863 537.922,217.008 538.219,216.105C538.872,216.495 539.56,216.851 540.271,217.106C539.272,217.822 537.998,218.322 536.973,218.68ZM534.996,220.91C534.997,220.908 534.995,220.906 534.996,220.904C534.997,220.904 534.998,220.904 534.999,220.903C534.998,220.906 534.997,220.907 534.996,220.91ZM538.246,214.089C538.212,214.657 538.113,215.167 537.97,215.638C537.902,215.598 537.832,215.563 537.765,215.522C537.621,215.434 537.491,215.658 537.633,215.747C537.714,215.798 537.799,215.848 537.882,215.899C537.485,217.033 536.83,217.95 536.169,218.929C533.039,219.884 529.845,219.972 526.703,219.477C525.872,219.171 525.056,218.819 524.267,218.481C522.469,217.712 520.719,216.845 519,215.919C521.284,214.593 523.61,213.335 525.983,212.172C527.608,211.375 529.252,210.619 530.915,209.906C532.113,209.392 533.321,208.9 534.537,208.431C534.673,208.379 535.028,208.275 535.421,208.164C537.113,209.723 538.405,211.457 538.246,214.089ZM518.456,216.23C519.011,216.531 519.565,216.829 520.127,217.117C521.043,217.585 522.064,218.139 523.145,218.675C521.297,218.144 519.489,217.453 517.739,216.662C517.979,216.519 518.216,216.371 518.456,216.23ZM511.932,213.662C512.447,213.661 512.966,213.544 513.403,213.29C514.997,214.27 516.607,215.222 518.25,216.12C518.005,216.265 517.766,216.418 517.524,216.565C516.542,216.115 515.578,215.639 514.641,215.141C513.732,214.659 512.83,214.164 511.932,213.662ZM511.166,213.21C511.155,213.208 511.146,213.21 511.136,213.209C511.049,213.16 510.964,213.111 510.877,213.062C510.978,212.98 511.073,212.891 511.168,212.795C511.357,212.602 511.543,212.424 511.739,212.257C512.158,212.52 512.578,212.781 512.999,213.041C512.435,213.283 511.853,213.383 511.166,213.21ZM510.426,211.425C510.419,211.432 510.41,211.438 510.405,211.447C510.399,211.432 510.392,211.415 510.386,211.4C510.399,211.408 510.413,211.417 510.426,211.425ZM494.128,202.916C490.529,200.731 486.931,198.546 483.332,196.361C482.802,196.039 482.268,195.722 481.737,195.401C481.766,195.374 481.781,195.333 481.755,195.292C481.44,194.807 481.057,194.33 480.645,193.876C482.854,195.027 485.112,196.075 487.125,197.212C492.974,200.515 498.737,203.97 504.41,207.567C505.791,208.442 507.165,209.331 508.542,210.217C508.541,210.219 508.541,210.221 508.54,210.222C508.507,210.329 508.639,210.389 508.713,210.327C508.837,210.407 508.962,210.487 509.086,210.567C509.097,210.574 509.106,210.583 509.118,210.587C509.368,210.748 509.619,210.909 509.87,211.07C510.012,211.379 510.198,211.649 510.523,211.806C510.626,211.855 510.777,211.798 510.768,211.665C510.768,211.657 510.767,211.649 510.767,211.641C510.977,211.775 511.189,211.908 511.4,212.042C511.274,212.158 511.156,212.289 511.036,212.416C510.924,212.536 510.734,212.708 510.516,212.856C504.973,209.689 499.574,206.223 494.128,202.916ZM472.535,188.256C472.98,187.992 473.483,187.743 474.007,187.515C474.089,187.644 474.3,187.629 474.347,187.469C474.358,187.433 474.365,187.397 474.376,187.36C475.833,186.758 477.342,186.307 477.981,186.067C479.582,185.466 481.404,185.134 482.935,184.353C483.344,184.616 483.753,184.88 484.163,185.146C483.628,185.257 483.051,185.491 482.702,185.578C481.348,185.915 480.008,186.306 478.685,186.748C478.044,186.962 474.89,187.664 474.027,188.739C473.778,188.444 473.709,188.221 474.001,188.167C474.044,188.159 474.032,188.094 473.991,188.092C473.636,188.081 473.282,188.07 472.927,188.059C472.788,188.055 472.736,188.226 472.819,188.32C473.049,188.579 473.288,188.829 473.535,189.073C473.546,189.542 473.683,190.042 473.806,190.453C473.837,190.555 473.872,190.664 473.907,190.772C472.927,189.996 472.267,189.131 472.535,188.256ZM463.91,207.62C463.909,207.62 463.909,207.619 463.908,207.619C463.593,207.592 463.293,207.456 463.007,207.24C463.515,206.303 464.015,205.362 464.507,204.416C464.899,204.83 465.294,205.242 465.688,205.654C465.516,206.127 465.369,206.603 465.242,207.081C464.789,207.237 464.347,207.421 463.91,207.62ZM472.525,207.803C473.243,209.43 473.318,211.057 472.852,212.637C471.769,213.345 470.653,213.941 469.817,214.399C468.457,215.144 466.22,216.388 464.165,216.869C464.372,216.769 464.558,216.671 464.708,216.583C464.813,216.521 464.742,216.366 464.627,216.391C463.997,216.528 462.945,216.941 462.134,217.035C461.907,217.009 461.685,216.971 461.477,216.903C461.402,216.879 461.346,216.912 461.316,216.963C459.68,216.419 460.367,214.535 460.676,213.433C460.731,213.235 461.227,211.958 461.857,210.775C462.132,210.427 462.413,210.084 462.71,209.754C465.89,208.47 469.12,207.815 472.525,207.803ZM474.581,207.871C474.536,209.127 474.429,210.374 474.263,211.614C473.993,211.834 473.711,212.046 473.422,212.25C473.506,211.819 473.555,211.382 473.562,210.949C473.575,210.162 473.469,209.369 473.219,208.621C473.138,208.38 472.92,208.07 472.776,207.799C473.262,207.802 473.75,207.817 474.243,207.846C474.356,207.852 474.468,207.864 474.581,207.871ZM477.418,208.134C477.507,208.84 477.512,209.56 477.402,210.261C477.305,210.882 477.079,211.428 476.886,212.01C476.414,212.262 476.028,212.455 475.836,212.56C475.961,212.092 476.024,211.591 476.075,211.345C476.171,210.875 476.224,210.405 476.256,209.935C476.46,209.564 476.607,209.181 476.661,208.787C476.681,208.647 476.48,208.581 476.442,208.727C476.402,208.884 476.348,209.039 476.284,209.192C476.283,208.8 476.258,208.408 476.214,208.014C476.452,208.039 476.691,208.062 476.928,208.09C476.925,208.09 477.12,208.106 477.418,208.134ZM479.719,208.426C479.647,208.444 479.584,208.5 479.578,208.596C479.526,209.355 479.334,210.02 479.081,210.668C478.6,211.023 478.048,211.361 477.53,211.655C477.965,210.572 477.955,209.272 477.691,208.161C478.313,208.224 479.171,208.321 479.719,208.426ZM479.836,210.028C479.917,209.546 479.952,209.059 479.948,208.596C479.947,208.536 479.925,208.491 479.891,208.462C480.077,208.504 480.206,208.546 480.238,208.588C480.569,209.013 480.336,209.52 479.836,210.028ZM473.954,213.573C473.548,213.784 473.139,213.992 472.727,214.194C472.963,213.761 473.15,213.301 473.285,212.824C473.594,212.615 473.897,212.397 474.19,212.169C474.121,212.638 474.04,213.106 473.954,213.573ZM475.809,210.612C475.797,210.683 475.791,210.755 475.778,210.826C475.7,211.241 475.599,211.652 475.477,212.056C475.395,212.325 475.304,212.592 475.206,212.856C475.175,212.887 475.15,212.918 475.128,212.947C474.892,213.076 474.658,213.207 474.419,213.334C474.503,212.827 474.574,212.319 474.632,211.81C475.077,211.431 475.48,211.032 475.809,210.612ZM475.907,209.874C475.589,210.357 475.172,210.818 474.689,211.251C474.795,210.136 474.844,209.017 474.83,207.89C475.205,207.918 475.58,207.949 475.954,207.987C475.975,208.617 475.967,209.247 475.907,209.874ZM460.349,217.463C458.639,216.258 459.629,214.384 460.317,213.107C460.23,213.331 460.171,213.502 460.147,213.592C459.895,214.547 459.282,216.479 460.236,217.26C460.837,217.752 461.835,217.67 462.774,217.402C465.204,217.404 468.123,215.764 470.015,214.737C470.732,214.348 471.685,213.84 472.646,213.239C472.479,213.674 472.271,214.105 472.025,214.531C469.523,215.715 466.919,216.72 464.266,217.393C463.132,217.681 461.426,218.221 460.349,217.463ZM459.257,199.58C458.969,198.916 458.675,198.183 458.343,197.455C458.433,197.532 458.552,197.558 458.717,197.486C458.772,197.462 458.737,197.388 458.689,197.384C458.563,197.373 458.476,197.119 458.414,196.743C460.567,198.103 462.869,199.513 465.18,200.567C465.178,200.573 465.176,200.578 465.174,200.583C465.096,200.79 465.38,200.914 465.52,200.785C465.539,200.768 465.551,200.753 465.569,200.737C465.673,200.782 465.776,200.824 465.88,200.868C465.61,201.4 465.341,201.932 465.071,202.464C465.07,202.468 465.067,202.472 465.065,202.476C464.85,202.9 464.635,203.325 464.422,203.75C464.338,203.672 464.279,203.617 464.264,203.602C464.088,203.426 463.819,203.695 463.991,203.876C464.071,203.96 464.152,204.044 464.232,204.128C463.744,205.102 463.265,206.081 462.794,207.063C461.073,205.49 459.894,201.044 459.257,199.58ZM455.462,194.519C455.573,194.49 455.682,194.461 455.791,194.432C455.907,194.506 456.026,194.575 456.165,194.637C455.833,194.538 455.608,194.504 455.462,194.519ZM441.006,198.39C440.709,198.176 440.464,197.882 440.331,197.498C440.328,197.489 440.321,197.484 440.318,197.475C440.383,197.474 440.446,197.47 440.51,197.469C440.594,197.768 440.763,198.032 441.012,198.228C441.004,198.282 441.002,198.336 441.006,198.39ZM459.234,179.948C459.382,179.925 459.53,179.898 459.677,179.88C460.006,180.402 460.342,180.478 460.767,180.008C460.771,180.003 460.77,179.997 460.773,179.992C461.605,181.814 462.073,183.78 462.007,185.804C461.971,186.882 461.808,187.974 461.523,189.014C461.485,189.154 461.307,189.523 461.08,189.962C460.724,190.067 460.369,190.175 460.014,190.281C461.753,187.113 460.594,183.268 459.234,179.948ZM460.691,179.811C460.694,179.818 460.696,179.824 460.699,179.831C460.68,179.829 460.66,179.829 460.639,179.842C460.626,179.832 460.613,179.826 460.6,179.817C460.63,179.816 460.661,179.812 460.691,179.811ZM457.715,180.086C456.604,180.402 455.498,180.741 454.39,181.069C452.954,181.494 451.518,181.918 450.082,182.343C450.021,181.939 449.951,181.536 449.864,181.137C449.11,177.654 447.57,172.668 443.95,171.188C445.132,170.777 446.294,170.271 447.412,169.785C447.547,169.914 447.682,170.044 447.816,170.174C447.956,170.308 448.19,170.174 448.141,169.985C448.099,169.822 448.042,169.678 447.976,169.541C448.044,169.511 448.114,169.48 448.182,169.452C448.819,169.18 449.471,168.907 450.125,168.625C450.246,168.69 450.369,168.752 450.486,168.821C450.712,168.955 450.988,168.624 450.775,168.447C450.746,168.423 450.717,168.399 450.689,168.376C451.276,168.116 451.861,167.844 452.435,167.555C453.489,167.246 454.543,166.936 455.598,166.624C456.789,166.905 457.841,167.295 458.778,167.816C459.403,168.271 460.03,168.721 460.656,169.173C461.582,170.027 462.375,171.08 463.072,172.377C463.466,173.11 463.845,174.181 464.352,175.114C464.393,175.405 464.439,175.69 464.494,175.959C464.52,176.085 464.72,176.056 464.717,175.929C464.716,175.853 464.709,175.778 464.707,175.703C465.08,176.258 465.52,176.711 466.071,176.926C466.131,176.949 466.195,176.919 466.24,176.881C466.315,176.817 466.391,176.754 466.467,176.69C466.544,176.625 466.458,176.52 466.377,176.535C466.241,176.56 466.1,176.525 465.957,176.447C466.14,175.378 466.177,174.188 466.148,173.082C466.496,173.326 466.844,173.571 467.193,173.814C466.818,174.834 466.703,176.101 467.007,177.069C466.875,177.049 466.743,177.027 466.611,177.011C466.554,177.004 466.529,177.098 466.581,177.121C468.301,177.888 470.701,178.134 472.559,177.842C473.196,178.793 473.703,179.815 474.04,180.906C473.737,181.518 473.52,182.156 473.494,182.741C473.488,182.868 473.669,182.911 473.729,182.805C473.942,182.431 474.083,182.014 474.229,181.601C474.259,181.724 474.291,181.847 474.316,181.972C474.355,182.169 474.388,182.367 474.415,182.566C474.088,183.061 473.813,183.579 473.631,184.118C473.58,184.268 473.788,184.331 473.869,184.219C474.084,183.921 474.288,183.622 474.491,183.324C474.515,183.678 474.525,184.034 474.515,184.388C474.514,184.436 474.505,184.503 474.493,184.579C474.416,184.729 474.337,184.879 474.27,185.032C474.236,185.109 474.293,185.198 474.362,185.218C474.28,185.574 474.183,185.968 474.114,186.281C473.928,186.377 473.747,186.473 473.57,186.57C469.591,187.56 465.605,188.643 461.638,189.802C462.868,186.142 462.434,182.09 460.334,178.693C460.269,178.587 460.106,178.682 460.167,178.791C460.271,178.975 460.366,179.163 460.462,179.35C460.211,179.233 460.001,179.3 459.788,179.55C459.745,179.552 459.702,179.549 459.658,179.556C459.48,179.596 459.303,179.644 459.126,179.689C459.051,179.508 458.976,179.327 458.9,179.15C458.865,179.067 458.721,179.127 458.754,179.211C458.824,179.384 458.892,179.557 458.961,179.73C458.543,179.839 458.127,179.955 457.715,180.086ZM448.232,191.451C449.039,188.851 448.953,186.156 448.369,183.494C448.359,183.352 448.346,183.21 448.334,183.067C448.839,182.921 449.345,182.775 449.85,182.628C450.258,185.719 449.82,188.818 448.232,191.451ZM442.148,171.715C442.708,171.586 443.266,171.422 443.82,171.233C447.339,172.793 448.866,177.754 449.607,181.208C449.694,181.611 449.762,182.015 449.82,182.42C449.319,182.568 448.818,182.716 448.317,182.865C448.114,180.775 447.611,178.729 446.647,176.862C445.711,175.046 444.108,172.853 442.148,171.715ZM436.746,172.072C437.77,171.674 438.803,171.269 439.823,171.022C439.822,171.038 439.819,171.055 439.831,171.067C439.865,171.104 439.9,171.138 439.935,171.173C439.769,171.516 439.975,172.027 440.42,171.994C440.525,171.986 440.629,171.966 440.734,171.955C441.029,172.231 441.323,172.497 441.616,172.759C439.988,172.301 438.184,172.116 436.746,172.072ZM446.117,168.102C446.4,168.238 446.684,168.367 446.969,168.481C446.864,168.518 446.759,168.556 446.653,168.592C446.48,168.433 446.299,168.269 446.117,168.102ZM436.762,159.317C438.219,160.442 439.671,161.573 441.091,162.748C441.201,162.84 441.311,162.941 441.421,163.037C439.856,161.813 438.304,160.571 436.762,159.317ZM425.669,149.202C425.145,148.279 424.91,147.506 424.968,146.682C426.042,148.413 427.647,149.689 429.233,151.02C431.104,152.591 432.976,154.159 434.848,155.727C434.776,156.19 434.707,156.655 434.64,157.119C433.969,156.625 433.292,156.139 432.605,155.672C432.529,155.621 432.443,155.658 432.396,155.722C431.02,154.57 429.656,153.403 428.33,152.197C427.352,151.307 426.33,150.365 425.669,149.202ZM429.134,145.394C429.867,145.616 430.581,145.903 431.282,146.231C432.841,147.551 434.408,148.863 435.985,150.162C435.886,150.451 435.796,150.71 435.764,150.852C435.61,151.533 435.471,152.218 435.337,152.903C435.183,153.692 435.045,154.484 434.916,155.278C433.378,154.002 431.84,152.726 430.302,151.45C428.361,149.839 426.408,148.345 425.02,146.256C425.081,145.932 425.184,145.596 425.333,145.235C425.597,144.593 425.954,144.174 426.398,143.88C427.246,144.548 428.149,145.096 429.134,145.394ZM422.601,139.672C420.263,137.425 418.027,135.086 415.865,132.683C418.017,134.637 420.207,136.549 422.347,138.463C423.675,139.652 425.014,140.83 426.357,142.003C426.05,142.102 425.751,142.241 425.47,142.42C424.485,141.533 423.545,140.579 422.601,139.672ZM408.843,124.048C408.831,123.114 409.162,122.401 409.665,121.705C410.785,123.303 412.214,124.724 413.624,126.077C416.927,129.246 420.303,132.341 423.712,135.396C422.956,135.781 422.506,136.179 422.563,136.572C420.805,135.039 419.057,133.495 417.325,131.934C417.629,131.963 417.913,131.704 417.849,131.382C417.825,131.263 417.659,131.303 417.65,131.409C417.634,131.595 417.46,131.713 417.289,131.646C417.199,131.61 417.136,131.678 417.124,131.755C417.044,131.683 416.963,131.612 416.883,131.539C416.755,131.424 416.619,131.305 416.479,131.183C416.59,130.785 416.716,130.382 416.775,129.979C416.789,129.883 416.664,129.847 416.629,129.939C416.493,130.291 416.407,130.671 416.317,131.044C415.933,130.714 415.51,130.363 415.06,129.991C415.075,129.283 415.314,128.701 415.582,128.023C415.626,127.912 415.461,127.823 415.386,127.908C414.952,128.396 414.778,129.085 414.764,129.747C412.83,128.151 410.495,126.211 408.82,124.106C408.831,124.089 408.843,124.074 408.843,124.048ZM428.788,133.894C430.779,133.356 432.816,133.005 434.85,132.683C437.2,132.31 439.56,132 441.926,131.752C442.395,131.702 443.061,131.58 443.796,131.47C444.02,131.627 444.243,131.784 444.466,131.941C441.796,132.246 439.117,132.984 436.633,133.541C433.384,134.27 428.925,134.649 426.831,137.577C425.964,136.82 425.099,136.061 424.238,135.298C425.801,134.617 428.123,134.073 428.788,133.894ZM443.604,130.943C437.976,127.045 432.41,123.009 426.684,119.247C430.461,121.085 434.048,123.293 437.583,125.556C440.392,127.353 443.168,129.202 445.915,131.092C445.32,131.136 444.716,131.24 444.162,131.324C443.976,131.197 443.789,131.071 443.604,130.943ZM455.928,138.268C457.013,139.076 458.092,139.892 459.167,140.714C459.151,140.702 459.315,140.841 459.584,141.057C459.914,141.617 460.257,142.166 460.614,142.706C458.047,140.744 455.383,138.884 452.688,137.064C451.627,135.829 450.56,134.671 449.457,133.564C449.701,133.737 449.947,133.906 450.19,134.08C452.117,135.455 454.029,136.853 455.928,138.268ZM462.206,142.875C462.193,142.956 462.191,143.037 462.216,143.112C462.335,143.462 462.485,143.669 462.864,143.751C462.87,143.752 462.877,143.752 462.884,143.753C462.945,143.985 463.021,144.211 463.104,144.434C462.765,144.235 462.422,144.035 462.076,143.835L462.075,143.835C461.827,143.637 461.57,143.447 461.319,143.251C460.902,142.669 460.501,142.074 460.113,141.471C460.734,141.947 461.548,142.533 462.206,142.875ZM481.599,158.757C481.557,158.801 481.517,158.844 481.477,158.888C479.568,157.974 477.708,156.863 475.861,155.507C474.984,154.864 474.103,154.194 473.23,153.497C473.238,153.448 473.244,153.398 473.246,153.341C473.25,153.136 472.996,153.099 472.894,153.225C470.091,150.957 467.408,148.395 465.336,145.48C470.4,150.113 475.709,155.023 481.599,158.757ZM485.318,157.487C485.941,158.674 486.582,159.851 487.238,161.02C486.62,160.852 486.008,160.672 485.405,160.473C484.513,160 483.64,159.499 482.785,158.97C483.642,158.506 484.469,157.976 485.318,157.487ZM501.089,154.668C498.773,155.077 496.48,155.595 494.241,156.343C494.108,156.113 493.956,155.894 493.788,155.684C494.839,155.544 495.885,155.378 496.917,155.241C498.309,155.056 499.699,154.862 501.089,154.668ZM521.999,147.19C522.189,147.529 522.419,147.857 522.71,148.167C522.716,148.173 522.724,148.171 522.729,148.175C522.674,148.224 522.617,148.274 522.56,148.322C522.352,147.977 522.164,147.598 521.999,147.19ZM521.774,137.811C521.565,139.093 521.58,140.499 521.472,141.486C521.348,142.607 521.232,143.735 521.32,144.81C520.875,142.384 521.012,139.67 521.774,137.811ZM531.487,136.734C530.107,139.003 528.7,141.285 527.11,143.402C526.715,141.74 526.258,140.092 525.82,138.442C525.621,137.691 525.38,135.154 524.764,134.697C524.711,134.658 524.662,134.629 524.614,134.605C525.318,134.253 526.108,134.063 526.969,134.081C529.064,134.125 530.252,135.234 531.487,136.734ZM547.315,124.065C549.24,124.563 549.796,126.466 550.257,128.233C550.942,130.859 551.202,133.596 551.046,136.307C550.976,136.319 550.906,136.331 550.837,136.343C550.989,132.297 550.596,127.811 548.095,124.483C548.025,124.39 547.867,124.476 547.935,124.577C549.783,127.285 550.287,130.395 550.442,133.611C550.487,134.541 550.5,135.477 550.461,136.408C548.131,136.814 545.803,137.225 543.477,137.65C543.999,135.358 544.482,133.059 544.838,130.739C544.973,129.864 545.679,126.784 545.393,124.992C545.405,124.98 545.418,124.968 545.422,124.945C545.425,124.928 545.423,124.913 545.426,124.896C546.001,124.769 546.597,124.722 547.218,124.781C547.391,124.798 547.432,124.508 547.259,124.475C546.614,124.354 546.007,124.35 545.433,124.434C545.416,124.31 545.384,124.199 545.336,124.098C545.986,123.936 546.654,123.894 547.315,124.065ZM550.616,139.376C550.744,138.351 550.795,137.377 550.822,136.719C550.892,136.703 550.958,136.685 551.026,136.668C551.023,136.707 551.023,136.746 551.02,136.785C550.952,137.677 550.802,138.534 550.616,139.376ZM550.486,150.223C546.971,149.397 543.42,148.73 539.836,148.225C539.886,148.161 539.93,148.091 539.983,148.029C540.065,147.933 540.473,147.588 540.851,147.31C540.86,147.307 540.87,147.303 540.879,147.3C540.924,147.284 540.971,147.271 541.016,147.255C540.992,147.383 540.968,147.511 540.944,147.638C540.914,147.797 541.157,147.866 541.189,147.706C541.225,147.524 541.266,147.343 541.304,147.161C541.393,147.131 541.483,147.103 541.573,147.073C541.618,147.121 541.693,147.137 541.729,147.061C541.737,147.045 541.739,147.032 541.745,147.017C542.352,146.822 542.964,146.644 543.582,146.49C544.353,146.428 545.138,146.396 545.943,146.404C546.703,146.411 547.462,146.447 548.219,146.505C548.242,146.54 548.268,146.568 548.29,146.605C548.073,146.695 548.198,147.003 548.417,146.905C548.608,146.819 548.749,146.702 548.831,146.561C550.865,146.75 552.885,147.096 554.883,147.517C553.306,148.228 551.824,149.188 550.486,150.223ZM538.532,154.604C538.572,154.614 538.612,154.624 538.651,154.634C538.583,154.678 538.515,154.721 538.447,154.764C538.476,154.711 538.505,154.659 538.532,154.604ZM535.999,155.726C536.284,155.535 536.57,155.346 536.852,155.151C536.89,155.234 536.93,155.315 536.977,155.389C537.019,155.455 537.09,155.522 537.17,155.577C536.82,155.799 536.472,156.023 536.121,156.244C536.086,156.072 536.046,155.899 535.999,155.726ZM535.037,156.367C535.226,156.244 535.413,156.118 535.6,155.994C535.655,156.153 535.712,156.311 535.768,156.47C535.544,156.61 535.323,156.754 535.1,156.894C535.086,156.717 535.064,156.542 535.037,156.367ZM533.355,157.435C533.402,157.591 533.457,157.737 533.524,157.866C533.311,157.998 533.098,158.129 532.884,158.261C532.863,158.095 532.836,157.93 532.807,157.764C532.99,157.653 533.174,157.546 533.355,157.435ZM541.35,145.23C540.935,145.287 540.522,145.355 540.111,145.431C540.975,144.039 541.206,142.265 541.57,140.677C541.765,139.824 541.963,138.972 542.159,138.119C542.452,138.065 542.746,138.015 543.039,137.961C542.413,140.342 541.658,142.819 541.35,145.23ZM538.414,148.029C538.304,148.015 538.194,147.998 538.084,147.984C537.96,147.968 537.962,148.161 538.084,148.177L538.086,148.177C536.911,148.721 535.28,149.381 534.191,150.335C534.035,149.983 533.936,149.664 533.9,149.383C534.113,149.268 534.327,149.154 534.542,149.046C534.551,149.043 534.56,149.038 534.569,149.033C536.421,148.105 538.33,147.414 540.336,146.973C540.192,147.091 540.051,147.228 539.914,147.377C539.408,147.579 538.909,147.799 538.414,148.029ZM538.766,148.078C539.05,147.966 539.327,147.861 539.589,147.764C539.491,147.89 539.396,148.019 539.305,148.152C539.125,148.128 538.946,148.102 538.766,148.078ZM536.563,151.545C535.836,151.392 535.132,151.164 534.452,150.861C534.393,150.754 534.339,150.651 534.289,150.549C535.309,149.609 536.923,148.824 538.402,148.223C538.662,148.258 538.921,148.299 539.181,148.336C538.774,148.954 538.443,149.589 538.237,149.988C537.954,150.534 537.664,151.161 537.536,151.795C537.21,151.717 536.885,151.635 536.563,151.545ZM533.787,153.216C534.106,153.316 534.426,153.415 534.747,153.515C535.014,154.258 535.263,155.005 535.517,155.751C535.348,155.89 535.177,156.028 535.004,156.162C534.809,155.109 534.387,154.105 533.787,153.216ZM533.353,153.083C534.024,154.112 534.431,155.222 534.642,156.436C534.312,156.682 533.977,156.922 533.634,157.154C533.326,156.108 532.878,154.537 532.793,154.333C532.561,153.777 532.311,153.224 532.031,152.689C532.461,152.824 532.904,152.947 533.353,153.083ZM533.462,151.582C533.987,152.002 534.676,152.328 535.441,152.592C534.215,152.338 532.92,152.012 531.983,151.623C531.975,151.391 531.976,151.165 532.073,150.92C532.17,150.678 532.323,150.463 532.512,150.287C532.565,150.442 532.632,150.601 532.73,150.767C532.875,151.013 533.074,151.232 533.301,151.435C533.296,151.444 533.291,151.452 533.286,151.461C533.228,151.58 533.391,151.679 533.462,151.582ZM538.479,145.361C538.561,145.472 538.659,145.601 538.769,145.719C538.043,145.897 537.332,146.113 536.636,146.363C537.129,145.79 537.611,145.207 538.078,144.613C538.18,144.877 538.31,145.129 538.479,145.361ZM531.047,151.112C531.301,150.939 531.556,150.772 531.811,150.609C531.788,150.646 531.759,150.679 531.738,150.719C531.636,150.913 531.549,151.16 531.518,151.408C531.344,151.318 531.186,151.226 531.059,151.13C531.055,151.124 531.051,151.117 531.047,151.112ZM536.509,154.216C536.571,154.376 536.627,154.551 536.686,154.725C536.434,154.965 536.176,155.198 535.911,155.425C535.728,154.819 535.487,154.219 535.208,153.656C535.617,153.782 536.027,153.908 536.439,154.029C536.463,154.091 536.484,154.154 536.509,154.216ZM541.773,146.712C541.771,146.708 541.771,146.705 541.769,146.701C541.802,146.696 541.834,146.69 541.866,146.685C541.835,146.695 541.804,146.702 541.773,146.712ZM548.291,144.014C548.886,143.959 549.339,143.525 549.685,142.887C549.479,143.62 549.284,144.36 549.115,145.114C546.754,144.892 544.221,144.874 541.727,145.182C542.269,142.75 542.864,140.324 543.421,137.893C544.657,137.668 545.892,137.441 547.13,137.227C548.06,137.066 549.32,137.005 550.438,136.797C550.429,136.957 550.422,137.117 550.409,137.276C550.331,138.255 549.777,143.442 548.291,143.61C548.037,143.639 548.03,144.038 548.291,144.014ZM524.11,148.41C524.132,148.439 524.15,148.471 524.172,148.5C524.211,148.55 524.266,148.565 524.316,148.557C524.313,148.558 524.311,148.56 524.308,148.562C524.008,148.757 523.695,148.956 523.374,149.153C523.33,149.119 523.281,149.095 523.222,149.087C523.526,148.869 523.82,148.642 524.11,148.41ZM523.416,147.348C523.443,147.395 523.469,147.443 523.498,147.489C523.481,147.505 523.465,147.521 523.448,147.537C523.437,147.474 523.427,147.411 523.416,147.348ZM528.275,144.135C528.164,144.379 528.056,144.624 527.948,144.868C527.44,145.574 526.931,146.279 526.426,146.987C525.786,147.521 525.118,148.023 524.423,148.481C524.441,148.447 524.443,148.405 524.412,148.36C524.384,148.317 524.359,148.274 524.331,148.232C525.797,147.023 527.088,145.633 528.275,144.135ZM530.018,141.772C532.134,138.712 533.996,135.399 536.105,132.368C536.324,132.097 536.561,131.807 536.72,131.503C536.765,131.441 536.809,131.378 536.854,131.317C538.478,129.107 540.376,126.923 542.668,125.379C543.27,124.973 543.946,124.586 544.653,124.316C544.695,124.392 544.732,124.481 544.765,124.576C541.626,125.462 539.52,129.106 537.663,131.622C534.982,135.252 532.295,138.878 529.64,142.527C529.766,142.278 529.892,142.024 530.018,141.772ZM528.184,145.021C528.3,144.88 528.421,144.708 528.546,144.514C528.575,144.476 528.604,144.437 528.633,144.399C528.563,144.775 528.225,145.241 527.853,145.657C527.981,145.459 528.109,145.26 528.236,145.061C528.257,145.03 528.208,144.991 528.184,145.021ZM527.576,145.955C527.409,146.126 527.25,146.279 527.119,146.4C527.253,146.224 527.385,146.046 527.519,145.87C527.521,145.911 527.542,145.941 527.576,145.955ZM522.346,136.703C522.766,136.048 523.284,135.485 523.886,135.05C524.189,134.976 524.458,135.027 524.735,135.403C524.977,135.731 525.081,136.775 525.175,137.136C525.74,139.314 526.278,141.504 526.912,143.663C525.936,144.942 524.886,146.155 523.732,147.264C522.692,145.472 522,143.588 521.761,141.467C521.853,140.125 521.892,138.187 522.346,136.703ZM521.581,143.978C521.568,143.349 521.643,142.717 521.708,142.092C521.914,143.889 522.443,145.638 523.334,147.207C523.341,147.268 523.349,147.329 523.357,147.391C523.312,147.248 523.107,147.243 523.063,147.391C522.174,146.98 521.728,146.34 521.724,145.469C521.606,144.979 521.557,144.482 521.581,143.978ZM505.33,168.917C502.071,166.802 498.782,164.306 495.255,162.56C495.31,162.432 495.263,162.264 495.14,162.185C494.93,162.05 494.73,162.008 494.652,161.742C494.633,161.68 494.605,161.63 494.573,161.589C494.886,160.791 494.995,159.806 494.996,159.217C494.997,158.273 494.782,157.381 494.37,156.581C498.991,155.201 504.011,154.747 508.957,154.096C510.906,155.477 512.568,158.031 513.513,159.593C514.486,161.198 515.219,162.794 515.268,164.679C515.281,165.149 515.232,165.607 515.143,166.057C512.255,167.287 509.35,168.477 506.431,169.633C506.064,169.394 505.698,169.155 505.33,168.917ZM477.87,181.052C478.411,181.409 478.953,181.764 479.496,182.119C478.138,183.032 476.91,184.191 475.716,185.295C475.63,185.375 475.627,185.466 475.666,185.54C475.374,185.67 475.087,185.803 474.805,185.938C475.98,184.641 476.97,183.193 478.221,181.948C478.348,181.821 478.154,181.628 478.025,181.751C476.884,182.844 475.599,184.076 474.753,185.465C474.78,185.224 474.8,184.983 474.813,184.742C475.796,183.467 476.717,182.196 477.87,181.052ZM476.799,180.346C476.8,180.345 476.8,180.344 476.801,180.343C477.07,180.521 477.338,180.7 477.607,180.878C476.579,181.763 475.56,182.818 474.826,183.996C474.82,183.641 474.793,183.288 474.753,182.938C475.369,182.03 475.985,181.143 476.799,180.346ZM474.517,180.873C474.761,180.353 475.054,179.867 475.342,179.375C475.732,179.636 476.124,179.893 476.514,180.153C475.87,180.764 475.204,181.465 474.649,182.23C474.584,181.868 474.503,181.508 474.4,181.154C474.438,181.06 474.474,180.964 474.517,180.873ZM479.703,183.993C480.082,183.662 480.454,183.324 480.815,182.977C481.011,183.104 481.207,183.231 481.403,183.358C481.169,183.465 480.936,183.574 480.702,183.683C480.384,183.777 480.05,183.88 479.703,183.993ZM480.392,182.702C479.372,183.402 478.314,184.024 477.213,184.576C478.076,183.826 478.952,183.089 479.773,182.299C479.979,182.434 480.186,182.567 480.392,182.702ZM482.244,159.247C482.271,159.233 482.299,159.218 482.327,159.204C482.467,159.29 482.606,159.378 482.747,159.463C482.579,159.391 482.411,159.321 482.244,159.247ZM493.735,163.64C493.891,163.626 494.01,163.57 494.112,163.501C494.503,163.722 494.888,163.952 495.277,164.177C495.433,164.297 495.589,164.418 495.747,164.535C493.843,164.275 491.884,164.239 489.991,164.122C485.139,163.822 480.857,162.423 477.898,158.809C482.637,161.806 488.271,164.13 493.735,163.64ZM488.721,161.394C488.319,161.302 487.921,161.203 487.526,161.099C486.846,159.864 486.148,158.639 485.432,157.425C485.877,157.171 486.331,156.933 486.798,156.723C487.399,158.295 488.059,159.846 488.721,161.394ZM489.345,156.056C489.885,157.555 490.432,159.051 490.98,160.547C491.051,160.937 491.152,161.302 491.283,161.657C491.211,161.619 491.14,161.578 491.067,161.54C490.919,161.462 490.787,161.687 490.935,161.765C491.002,161.801 491.068,161.838 491.135,161.874C491.052,161.86 490.971,161.844 490.888,161.83C490.856,161.736 490.814,161.639 490.749,161.525C490.708,161.454 490.598,161.501 490.618,161.58C490.614,161.617 490.61,161.655 490.606,161.692C490.099,160.421 489.591,159.151 489.082,157.881C488.932,157.506 488.759,156.733 488.491,156.15C488.773,156.095 489.06,156.065 489.345,156.056ZM494.157,161.487C494.013,161.54 493.89,161.666 493.866,161.849C493.864,161.866 493.854,161.878 493.85,161.894C493.717,161.607 493.648,161.318 493.612,161.016C493.622,160.977 493.624,160.934 493.603,160.884C493.603,160.881 493.602,160.879 493.601,160.877C493.597,160.837 493.594,160.797 493.591,160.756C494.106,159.482 494.111,158.046 493.462,156.865C493.681,156.792 493.902,156.725 494.123,156.658C494.445,157.327 494.643,158.052 494.683,158.82C494.712,159.4 494.662,159.983 494.512,160.545C494.427,160.871 494.305,161.184 494.157,161.487ZM491.539,156.628C491.586,156.952 491.633,157.278 491.684,157.605C491.534,157.214 491.381,156.825 491.222,156.439C491.331,156.495 491.438,156.557 491.539,156.628ZM493.168,161.59C493.179,161.641 493.189,161.693 493.202,161.744C493.064,161.814 492.985,161.993 493.014,162.151C492.938,162.142 492.86,162.132 492.784,162.122C492.923,161.952 493.052,161.775 493.168,161.59ZM490.809,156.264C490.841,156.432 490.87,156.612 490.91,156.727C491.077,157.208 491.256,157.685 491.43,158.164C491.748,159.039 492.073,159.913 492.379,160.793C492.232,161.136 492.054,161.47 491.858,161.791C491.141,159.878 490.419,157.966 489.688,156.058C490.077,156.075 490.456,156.142 490.809,156.264ZM493.559,155.713C493.724,155.941 493.877,156.176 494.008,156.422C493.785,156.498 493.561,156.575 493.338,156.657C493.148,156.356 492.911,156.078 492.628,155.825C492.938,155.792 493.249,155.753 493.559,155.713ZM487.817,156.322C487.914,156.291 488.013,156.263 488.113,156.237C488.785,158.066 489.484,159.886 490.189,161.703C489.963,161.66 489.74,161.613 489.516,161.566C489.47,161.067 489.349,160.591 489.128,160.097C489.107,160.049 489.025,160.083 489.044,160.132C489.226,160.618 489.306,161.061 489.298,161.52C489.242,161.508 489.185,161.497 489.128,161.485C488.431,159.861 487.734,158.236 486.974,156.642C487.249,156.524 487.53,156.415 487.817,156.322ZM453.121,138.122C453.27,138.275 453.421,138.425 453.58,138.569C455.826,140.609 458.634,142.23 461.365,143.814C463.125,146.286 465.178,148.538 467.51,150.526C467.718,150.703 468.382,151.288 469.188,151.924C470.305,152.978 471.454,153.998 472.639,154.971C468.233,156.546 464.362,159.55 459.943,161.131C459.902,161.145 459.92,161.21 459.961,161.195C464.505,159.583 468.459,156.864 472.994,155.254C473.43,155.608 473.864,155.965 474.309,156.306C475.268,157.041 476.291,157.77 477.362,158.468C479.416,161.266 482.339,163.182 485.839,163.9C489.392,164.63 492.988,164.428 496.454,165.046C498.786,166.701 501.32,168.149 503.663,169.665C505.357,170.761 507.051,171.857 508.747,172.949C508.522,173.01 508.296,173.071 508.071,173.132C506.579,173.538 505.087,173.947 503.596,174.36C500.449,175.232 497.307,176.121 494.171,177.03C491.122,177.913 487.122,178.523 484.456,180.599C482.419,179.312 480.391,178.01 478.374,176.691C461.632,165.749 445.66,153.689 430.451,140.705C429.275,139.702 428.107,138.691 426.942,137.675C429.171,134.653 434.265,134.295 437.638,133.567C440.094,133.037 442.513,132.477 444.944,132.277C447.668,134.206 450.38,136.186 453.121,138.122ZM465.367,148.018C465.046,147.696 464.72,147.381 464.411,147.048C463.562,146.133 462.765,145.179 462.013,144.192C462.453,144.448 462.89,144.705 463.321,144.962C463.82,146.069 464.551,147.072 465.367,148.018ZM447.547,132.219C447.76,132.367 447.971,132.518 448.183,132.667C448.738,133.164 449.284,133.67 449.804,134.204C450.446,134.864 451.013,135.597 451.586,136.324C449.553,134.96 447.515,133.607 445.5,132.239C446.18,132.2 446.862,132.188 447.547,132.219ZM446.955,131.805C446.302,131.798 445.645,131.827 444.985,131.888C444.749,131.726 444.512,131.565 444.276,131.402C444.902,131.319 445.554,131.258 446.167,131.264C446.429,131.445 446.694,131.623 446.955,131.805ZM430.119,143.065C427.624,140.949 425.14,138.819 422.674,136.67C422.714,136.666 422.755,136.662 422.795,136.658C422.821,136.655 422.852,136.64 422.857,136.611C422.864,136.562 422.872,136.513 422.88,136.464C422.892,136.385 422.771,136.351 422.758,136.431C422.81,136.109 423.23,135.791 423.82,135.494C424.221,135.852 424.62,136.213 425.021,136.57C425.541,137.034 426.072,137.486 426.595,137.948C426.556,138.012 426.511,138.07 426.474,138.137C426.432,138.213 426.548,138.28 426.591,138.205C426.624,138.147 426.665,138.096 426.7,138.04C433.906,144.395 441.31,150.517 448.914,156.391C460.223,165.125 471.938,173.333 484.014,180.971C483.593,181.349 483.216,181.772 482.889,182.247C482.424,181.943 481.958,181.64 481.494,181.338C463.573,169.696 446.417,156.886 430.119,143.065ZM464.252,174.077C463.844,173.267 463.516,172.5 463.357,172.21C462.981,171.52 462.583,170.857 462.13,170.234C462.884,170.774 463.64,171.31 464.396,171.846C464.245,172.54 464.21,173.312 464.252,174.077ZM464.603,173.608C464.586,173.062 464.612,172.514 464.572,171.97C464.989,172.264 465.405,172.559 465.823,172.852C465.689,173.946 465.608,175.144 465.68,176.245C465.337,175.937 464.99,175.423 464.668,174.858C464.643,174.441 464.617,174.025 464.603,173.608ZM456.707,166.294C456.953,166.476 457.2,166.657 457.447,166.838C456.978,166.69 456.498,166.578 456.006,166.502C456.24,166.433 456.473,166.364 456.707,166.294ZM454.493,166.376C454.899,166.111 455.288,165.827 455.661,165.526C455.907,165.708 456.154,165.887 456.4,166.069C455.945,166.176 455.49,166.286 455.036,166.402C454.856,166.391 454.676,166.377 454.493,166.376ZM454.406,166.434C454.395,166.481 454.417,166.538 454.48,166.544C454.485,166.544 454.489,166.545 454.493,166.545C454.341,166.585 454.189,166.627 454.036,166.668C454.161,166.592 454.284,166.514 454.406,166.434ZM448.547,167.875C448.255,167.998 447.962,168.118 447.667,168.231C447.661,168.234 447.654,168.236 447.647,168.238C447.284,167.785 446.881,167.361 446.448,166.96C447.127,167.283 447.843,167.573 448.547,167.875ZM436.752,157.323C437.371,157.841 437.99,158.361 438.61,158.88C441.599,161.386 444.589,163.892 447.581,166.395C447.739,166.527 447.966,166.768 448.218,167.026C447.109,166.48 445.971,166.014 444.81,165.593C444.668,165.015 444.184,164.773 443.718,164.365C442.459,163.265 441.14,162.223 439.837,161.175C438.601,160.18 437.358,159.184 436.095,158.214C436.305,157.91 436.524,157.613 436.752,157.323ZM435.32,156.123C435.209,156.54 435.095,156.957 434.98,157.374C434.945,157.349 434.911,157.322 434.876,157.297C434.948,156.844 435.026,156.392 435.103,155.941C435.176,156.001 435.248,156.062 435.32,156.123ZM436.565,150.642C436.341,151.706 436.122,152.771 435.909,153.837C435.756,154.461 435.597,155.084 435.433,155.707C435.348,155.636 435.263,155.566 435.178,155.495C435.404,154.199 435.644,152.905 435.917,151.617C435.974,151.349 436.136,150.894 436.282,150.408C436.377,150.486 436.47,150.565 436.565,150.642ZM435.926,156.116C436.373,154.473 436.793,152.824 437.218,151.175C438.21,151.986 439.203,152.795 440.202,153.598C439.351,154.136 438.573,154.916 437.91,155.596C437.52,155.996 437.159,156.418 436.812,156.851C436.517,156.606 436.222,156.361 435.926,156.116ZM435.478,157.75C435.543,157.52 435.608,157.291 435.672,157.061C435.69,157.003 435.709,156.937 435.728,156.862C435.758,156.754 435.785,156.645 435.814,156.537C436.063,156.745 436.312,156.954 436.561,157.162C436.334,157.459 436.117,157.763 435.908,158.073C435.766,157.964 435.621,157.858 435.478,157.75ZM435.164,157.513C435.162,157.511 435.159,157.51 435.157,157.508C435.164,157.488 435.17,157.468 435.177,157.448C435.173,157.47 435.169,157.491 435.164,157.513ZM448.582,166.626C444.726,163.421 440.868,160.216 437.009,157.014C437.356,156.592 437.718,156.182 438.108,155.794C438.843,155.061 439.71,154.492 440.5,153.837C444.125,156.748 447.793,159.607 451.5,162.413C452.587,163.235 453.679,164.051 454.772,164.865C452.613,164.999 450.462,165.598 448.582,166.626ZM449.558,167.437C449.292,167.215 449.025,166.994 448.758,166.772C450.661,166.023 452.508,165.542 454.454,165.319C452.793,165.916 451.181,166.71 449.558,167.437ZM427.893,143.332C428.514,143.868 429.133,144.406 429.757,144.939C428.767,144.594 427.784,144.265 426.898,143.613C427.198,143.489 427.528,143.399 427.893,143.332ZM440.016,170.979C440.055,170.971 440.095,170.962 440.134,170.954C440.117,170.964 440.106,170.979 440.091,170.99C440.066,170.987 440.041,170.982 440.016,170.979ZM467.294,177.111C467.279,176.489 467.171,175.887 467.222,175.259C467.258,174.824 467.353,174.411 467.462,174.001C468.442,174.683 469.424,175.362 470.408,176.037C470.509,176.55 470.688,177.095 471.02,177.455C471.106,177.548 471.283,177.451 471.238,177.328C471.13,177.026 470.939,176.757 470.819,176.457C470.796,176.398 470.778,176.337 470.756,176.278C471.199,176.581 471.645,176.879 472.089,177.18C472.184,177.306 472.279,177.432 472.369,177.561C471.43,177.526 470.495,177.575 469.555,177.481C468.792,177.405 468.046,177.238 467.294,177.111ZM472.561,177.569C472.521,177.517 472.478,177.467 472.436,177.415C473.332,178.024 474.229,178.632 475.129,179.234C474.808,179.621 474.489,180.08 474.215,180.571C473.86,179.566 473.346,178.611 472.683,177.733C472.69,177.66 472.646,177.578 472.561,177.569ZM470.587,189.212C470.05,189.214 469.512,189.284 468.976,189.396C468.989,189.162 469.03,188.934 469.119,188.71C469.142,188.65 469.122,188.598 469.084,188.561C469.968,188.298 470.844,188.025 471.726,187.759C471.097,188.259 470.682,188.752 470.587,189.212ZM467.88,200.7C467.63,200.389 467.423,200.049 467.271,199.673C467.232,199.597 467.18,199.554 467.124,199.524C467.351,199.098 467.575,198.661 467.793,198.215C467.965,199.045 467.993,199.84 467.88,200.7ZM468.574,197.03C468.538,196.992 468.501,196.953 468.465,196.914C468.453,196.897 468.436,196.887 468.423,196.872C468.466,196.797 468.509,196.721 468.552,196.645C468.559,196.773 468.571,196.902 468.574,197.03ZM466.089,199.555C465.436,201.002 466.349,198.773 466.41,198.614C466.725,197.802 467.034,196.988 467.338,196.172C467.952,194.526 468.561,192.875 469.07,191.193C469.222,191.148 469.374,191.104 469.523,191.054C469.557,191.183 469.738,191.253 469.843,191.146C470.038,190.95 470.001,191.422 469.905,191.997C469.546,192.036 469.204,192.401 469.266,192.833C469.29,192.961 469.3,193.089 469.318,193.216C469.084,193.657 468.854,194.105 468.63,194.562C468.496,194.676 468.407,194.844 468.403,195.04C467.704,196.515 467.077,198.041 466.567,199.513C466.514,199.618 466.46,199.724 466.407,199.829C466.275,200.09 466.142,200.351 466.009,200.613C465.945,200.568 465.881,200.522 465.816,200.477C466.021,200.236 466.145,199.993 466.243,199.62C466.267,199.531 466.13,199.466 466.089,199.555ZM467.073,191.672C467.631,191.554 468.193,191.434 468.744,191.287C467.56,194.217 466.453,197.192 465.337,200.149C465.05,199.96 464.757,199.773 464.459,199.59C465.472,197.061 466.332,194.299 467.073,191.672ZM462.542,198.379C463.167,196.469 463.481,194.416 463.862,192.442C464.313,192.33 464.764,192.219 465.214,192.104C464.447,194.057 463.986,196.332 463.677,198.339C463.654,198.49 463.866,198.558 463.912,198.404C464.522,196.353 465.223,194.139 465.605,192.006C465.618,192.003 465.632,192 465.645,191.996C466.044,191.894 466.456,191.804 466.872,191.716C465.752,194.109 464.752,196.862 464.206,199.438C463.639,199.096 463.056,198.767 462.466,198.446C462.499,198.435 462.53,198.416 462.542,198.379ZM462.2,192.859C462.627,192.754 463.053,192.644 463.48,192.538C463.035,194.449 462.517,196.401 462.319,198.348C462.318,198.357 462.324,198.361 462.325,198.369C461.989,198.187 461.651,198.01 461.312,197.835C461.792,196.242 461.953,194.512 462.2,192.859ZM458.25,193.809C458.907,193.653 459.563,193.494 460.219,193.337C459.978,194.515 459.805,195.738 459.858,196.927C459.864,197.074 460.072,197.071 460.085,196.927C460.196,195.695 460.28,194.486 460.488,193.272C460.938,193.164 461.39,193.058 461.84,192.948C461.547,194.524 461.173,196.138 461.107,197.728C460.187,197.257 459.265,196.805 458.365,196.372C458.28,195.578 458.266,194.5 458.25,193.809ZM465.239,189.681C465.253,189.868 465.272,190.054 465.29,190.241C465.297,190.31 465.302,190.378 465.308,190.446C465.28,190.454 465.252,190.462 465.224,190.469C463.774,190.85 462.323,191.23 460.873,191.611C461.003,191.359 461.123,191.104 461.235,190.847C462.572,190.465 463.904,190.07 465.239,189.681ZM467.34,189.372C467.318,189.533 467.289,189.693 467.278,189.851C466.753,190.013 466.231,190.182 465.714,190.333C465.706,190.284 465.698,190.236 465.691,190.187C465.663,189.982 465.633,189.779 465.599,189.576C466.191,189.403 466.784,189.233 467.376,189.059C467.365,189.164 467.354,189.269 467.34,189.372ZM467.836,189.684C467.842,189.604 467.847,189.524 467.855,189.448C467.872,189.269 467.899,189.085 467.919,188.901C468.209,188.815 468.5,188.733 468.79,188.647C468.671,188.896 468.578,189.193 468.546,189.494C468.309,189.552 468.072,189.616 467.836,189.684ZM445.57,195.434C445.561,195.434 445.553,195.43 445.545,195.43C445.579,195.395 445.614,195.365 445.649,195.328C445.705,195.268 445.729,195.197 445.729,195.128C450,193.983 454.281,192.804 458.558,191.598C458.58,191.641 458.606,191.691 458.643,191.761C458.692,191.856 458.833,191.87 458.904,191.795C459.024,191.669 459.123,191.539 459.23,191.41C459.65,191.291 460.071,191.176 460.491,191.056C460.329,191.349 460.174,191.62 460.052,191.827C459.268,192.032 458.486,192.24 457.701,192.443C453.853,193.439 449.427,194.043 445.57,195.434ZM457.597,196.002C457.496,195.831 457.392,195.662 457.283,195.499L457.296,195.499C457.306,195.499 457.306,195.482 457.296,195.482L457.272,195.482C456.98,195.047 456.654,194.647 456.287,194.3C456.859,194.15 457.423,194.007 457.979,193.874C457.99,193.988 458.002,194.095 458.003,194.135C458.012,194.448 458.024,194.761 458.035,195.074C458.047,195.443 458.035,195.834 458.047,196.219C457.896,196.146 457.745,196.074 457.597,196.002ZM458.115,196.954C458.118,196.966 458.121,196.978 458.124,196.991C458.019,196.775 457.909,196.561 457.794,196.351C457.883,196.407 457.971,196.463 458.06,196.519C458.071,196.667 458.088,196.813 458.115,196.954ZM467.266,202.074C466.979,201.761 466.691,201.448 466.403,201.136C466.352,201.08 466.293,201.058 466.236,201.058C466.241,201.047 466.247,201.037 466.252,201.026C466.316,201.052 466.38,201.082 466.444,201.107C466.535,201.143 466.572,201.01 466.506,200.961C466.453,200.922 466.396,200.886 466.343,200.847C466.4,200.736 466.457,200.626 466.513,200.515C466.556,200.506 466.597,200.482 466.623,200.436C466.656,200.379 466.687,200.318 466.72,200.26C466.945,200.823 467.142,201.395 467.314,201.976C467.298,202.009 467.282,202.041 467.266,202.074ZM466.932,202.506C466.959,202.538 466.986,202.569 467.013,202.601C466.998,202.632 466.984,202.664 466.969,202.695C466.957,202.632 466.942,202.569 466.932,202.506ZM466.428,203.859C466.067,203.459 465.741,203.032 465.462,202.572C465.65,202.203 465.839,201.835 466.027,201.466C466.429,202.016 466.658,202.599 466.721,203.217C466.621,203.43 466.525,203.645 466.428,203.859ZM464.713,204.021C464.892,203.675 465.073,203.33 465.251,202.984C465.315,203.123 465.389,203.284 465.469,203.46C465.491,203.454 465.541,203.49 465.627,203.579C465.843,203.804 466.042,204.037 466.245,204.268C466.179,204.42 466.117,204.572 466.053,204.725C465.988,204.604 465.923,204.485 465.862,204.371C465.922,204.518 465.977,204.66 466.026,204.793C465.977,204.912 465.929,205.031 465.882,205.15C465.564,204.823 465.073,204.358 464.713,204.021ZM497.125,191.212C496.76,190.999 496.395,190.785 496.031,190.57C496.058,190.231 496.072,189.891 496.076,189.553C496.08,189.139 496.169,188.665 495.955,188.297C495.945,188.279 495.919,188.28 495.908,188.297C495.694,188.634 495.754,189.06 495.742,189.449C495.733,189.763 495.729,190.079 495.736,190.394C491.425,187.828 487.216,185.068 483.054,182.354C483.393,181.868 483.779,181.451 484.201,181.09C485.197,181.719 486.196,182.344 487.198,182.966C487.215,183.141 487.254,183.319 487.326,183.505C487.363,183.599 487.517,183.559 487.48,183.462C487.431,183.333 487.402,183.207 487.385,183.082C490.681,185.126 494.003,187.127 497.351,189.085C497.274,189.794 497.195,190.502 497.125,191.212ZM498.609,192.064C498.205,191.836 497.802,191.604 497.4,191.371C497.436,191.015 497.496,190.661 497.525,190.35C497.559,189.98 497.588,189.611 497.619,189.241C497.986,189.456 498.352,189.672 498.72,189.886C498.573,190.587 498.502,191.354 498.609,192.064ZM500.109,192.902C499.739,192.699 499.371,192.491 499.002,192.284C498.945,191.946 498.886,191.607 498.878,191.258C498.87,190.845 498.909,190.439 498.979,190.037C499.357,190.256 499.738,190.472 500.118,190.69C500.012,191.413 499.988,192.173 500.109,192.902ZM501.775,193.548C501.78,193.631 501.785,193.719 501.794,193.808C501.338,193.568 500.885,193.322 500.432,193.076C500.293,192.317 500.218,191.578 500.292,190.79C500.766,191.062 501.24,191.335 501.715,191.605C501.689,192.25 501.738,192.905 501.775,193.548ZM508.968,208.35C509.377,205.469 510.091,202.706 510.837,199.885C510.979,199.936 511.12,199.989 511.262,200.039C510.508,202.853 509.835,205.689 509.044,208.496C509.018,208.447 508.993,208.399 508.968,208.35ZM509.49,210.098C509.51,210.144 509.531,210.19 509.55,210.237C509.522,210.219 509.493,210.201 509.465,210.183C509.475,210.151 509.484,210.122 509.49,210.098ZM508.595,208.323C508.579,208.298 508.564,208.273 508.548,208.248L508.548,208.226C508.564,208.257 508.58,208.288 508.595,208.319L508.595,208.323ZM507.588,206.699C506.921,205.346 506.261,203.99 505.606,202.631C505.443,202.292 505.281,201.927 505.119,201.549C505.767,202.821 506.416,204.093 507.069,205.363C507.507,206.215 507.95,207.064 508.39,207.915C508.387,207.94 508.386,207.965 508.384,207.989C508.047,207.462 507.71,206.947 507.588,206.699ZM510.597,199.795C509.597,202.339 509.022,205.051 508.666,207.77C508.3,207.069 507.935,206.368 507.57,205.666C506.935,204.448 506.302,203.229 505.664,202.013C505.52,201.738 505.044,201.026 504.591,200.286C504.317,199.623 504.036,198.951 503.738,198.31C503.759,198.305 503.778,198.294 503.787,198.269C503.797,198.242 503.807,198.215 503.816,198.189C503.83,198.15 503.8,198.114 503.767,198.102C503.73,198.088 503.694,198.074 503.657,198.06C503.645,198.056 503.635,198.064 503.624,198.067C503.318,197.427 502.994,196.828 502.643,196.315C505.239,197.632 507.889,198.809 510.597,199.795ZM506.908,207.102C506.887,207.077 506.86,207.077 506.835,207.085C506.474,206.371 505.81,205.148 505.714,204.963C505.071,203.725 504.431,202.486 503.785,201.25C502.737,199.244 501.674,197.247 500.608,195.251C501.101,195.516 501.597,195.773 502.094,196.029C504.055,200.559 506.185,205.062 508.472,209.438C508.468,209.471 508.465,209.504 508.461,209.537C508.156,209.339 507.849,209.142 507.543,208.945C507.612,208.903 507.663,208.822 507.65,208.73C507.548,208.025 507.369,207.64 506.908,207.102ZM480.149,192.769C479.073,192.189 477.997,191.611 476.949,190.979C476.921,190.91 476.886,190.843 476.859,190.773C476.819,190.669 476.661,190.707 476.689,190.82C476.689,190.822 476.69,190.824 476.69,190.825C476.499,190.704 476.124,190.454 475.698,190.148C475.709,190.151 475.717,190.157 475.728,190.16C475.815,190.189 475.853,190.051 475.766,190.022C475.7,190 475.642,189.967 475.578,189.943C475.579,189.938 475.578,189.933 475.579,189.929C475.585,189.808 475.446,189.789 475.38,189.858C475.324,189.833 475.265,189.814 475.212,189.787C474.935,189.576 474.667,189.359 474.437,189.153C475.804,187.87 481.775,186.145 482.336,186.002C483.324,185.75 483.598,185.636 484.613,186.035C485.105,185.975 485.414,186.101 485.541,186.414C485.566,186.477 485.606,186.532 485.66,186.577C486.11,186.685 485.421,186.706 486.151,186.825C486.252,186.842 486.291,186.707 486.194,186.671C485.986,186.595 485.863,186.403 485.758,186.179C490.453,189.227 495.26,192.349 500.25,195.055C502.193,198.971 504.16,202.879 506.186,206.752C506.185,206.762 506.182,206.772 506.189,206.78C506.2,206.794 506.212,206.809 506.224,206.824C506.558,207.464 506.891,208.105 507.229,208.742C505.657,207.727 504.084,206.713 502.498,205.721C497.68,202.706 492.792,199.802 487.844,197.005C485.295,195.564 482.728,194.157 480.149,192.769ZM478.626,193.393C478.296,192.974 477.89,192.634 477.584,192.193C477.571,192.175 477.563,192.155 477.551,192.137C478.294,192.596 479.061,193.03 479.839,193.449C480.366,194.052 480.901,194.648 481.444,195.224C480.497,194.652 479.551,194.078 478.6,193.512C478.641,193.493 478.662,193.438 478.626,193.393ZM474.19,190.347C474.144,190.202 474.11,190.052 474.079,189.901C474.095,189.919 474.107,189.936 474.124,189.955C474.196,190.031 474.3,189.92 474.237,189.842C474.19,189.783 474.171,189.721 474.164,189.658C474.541,189.993 474.934,190.314 475.34,190.624C475.379,191.111 475.512,191.614 475.783,191.997C475.38,191.769 474.974,191.524 474.59,191.266C474.444,190.965 474.291,190.666 474.19,190.347ZM476.236,192.248C476.092,191.908 475.884,191.6 475.758,191.25C475.711,191.12 475.676,190.988 475.648,190.855C476.103,191.19 476.571,191.512 477.053,191.822C477.308,192.358 477.662,192.866 478.1,193.222C477.644,192.976 476.966,192.644 476.236,192.248ZM532.989,199.384C532.676,199.536 532.353,199.671 532.024,199.794C531.458,198.587 530.408,197.495 529.404,196.749C529.301,196.672 529.169,196.843 529.266,196.927C529.898,197.468 530.482,198.071 530.966,198.749C531.233,199.123 531.438,199.52 531.64,199.919C531.257,200.048 530.867,200.159 530.469,200.254C530.159,199.858 529.817,199.486 529.476,199.144C529.14,198.806 528.781,198.49 528.405,198.196C528.221,198.053 528.033,197.916 527.839,197.786C527.791,197.754 527.741,197.724 527.693,197.693C527.71,197.67 527.717,197.638 527.694,197.609C527.479,197.344 527.292,197.275 526.953,197.268C526.858,197.266 526.83,197.394 526.906,197.442C527.769,197.98 528.579,198.602 529.292,199.329C529.602,199.646 529.873,199.987 530.132,200.335C529.844,200.397 529.554,200.451 529.262,200.499C528.114,200.622 526.969,200.648 525.83,200.593C525.803,200.558 525.771,200.526 525.727,200.484C525.676,200.433 525.606,200.508 525.65,200.561C525.659,200.571 525.664,200.577 525.672,200.586C523.591,200.471 521.526,200.082 519.492,199.501C521,199.149 522.521,198.544 523.241,198.342C525.389,197.738 527.507,197.021 529.578,196.189C529.75,196.12 529.962,196.019 530.197,195.902C530.866,196.417 531.489,196.999 532.02,197.655C532.447,198.183 532.753,198.763 533.083,199.334C533.051,199.35 533.021,199.368 532.989,199.384ZM515.922,198.907C516.434,199.106 516.945,199.298 517.461,199.477C516.737,199.453 516.197,199.279 515.922,198.907ZM515.668,198.946C516.104,199.692 517.081,199.846 518.208,199.728C519.399,200.116 520.599,200.439 521.802,200.686C519.162,200.44 516.56,199.87 514.023,199.083C514.029,198.861 514.07,198.636 514.166,198.408C514.214,198.29 514.01,198.203 513.958,198.32C513.86,198.538 513.802,198.772 513.778,199.008C513.172,198.817 512.568,198.612 511.971,198.398C512.021,198.107 512.078,197.816 512.122,197.524C512.135,197.43 512.004,197.387 511.976,197.483C511.894,197.76 511.817,198.038 511.738,198.315C511.671,198.29 511.604,198.265 511.536,198.24C511.578,198.227 511.612,198.183 511.58,198.14C511.295,197.76 511.072,197.424 511.091,196.927C511.097,196.769 510.853,196.77 510.847,196.927C510.829,197.391 511.006,197.936 511.418,198.196C510.603,197.894 509.796,197.575 508.997,197.238C507.387,196.561 505.8,195.824 504.228,195.047C504.123,194.695 504.001,194.347 503.883,194C503.72,193.522 503.591,193.017 503.325,192.584C503.3,192.543 503.228,192.557 503.231,192.609C503.264,193.152 503.465,193.675 503.615,194.194C503.678,194.41 503.742,194.626 503.808,194.841C503.441,194.658 503.076,194.469 502.711,194.281C502.773,194.179 502.776,194.055 502.659,193.937C502.602,193.879 502.524,193.952 502.554,194.018C502.455,194.063 502.379,194.077 502.314,194.077C502.261,194.049 502.208,194.023 502.155,193.995C502.139,193.964 502.127,193.929 502.124,193.882C502.1,193.736 502.083,193.59 502.074,193.443C502.053,193.232 502.037,193.021 502.016,192.81C501.981,192.441 501.948,192.072 501.891,191.706C502.087,191.817 502.282,191.931 502.478,192.042C506.454,194.297 510.972,196.947 515.692,198.816C515.658,198.848 515.638,198.894 515.668,198.946ZM511.018,174.511C509.296,174.739 507.386,175.507 505.99,175.815C502.809,176.517 499.612,177.169 496.447,177.939C494.723,178.358 487.953,179.687 487.245,182.333C486.384,181.797 485.518,181.27 484.66,180.729C486,179.755 487.633,179.223 489.29,178.724C491.923,177.932 494.575,177.199 497.22,176.452C501.167,175.339 505.116,174.222 509.079,173.163C509.295,173.303 509.513,173.44 509.73,173.579C510.16,173.888 510.589,174.199 511.018,174.511ZM515.581,165.87C515.737,165.05 515.762,164.212 515.542,163.338C514.985,161.127 513.685,159.092 512.331,157.294C511.537,156.24 510.489,154.957 509.299,154.051C509.99,153.958 510.679,153.861 511.365,153.757C512.875,155.587 514.156,157.564 515.089,159.777C515.655,161.12 516.075,162.44 516.226,163.893C516.289,164.505 516.304,165.029 516.258,165.579C516.033,165.676 515.807,165.773 515.581,165.87ZM514.588,168.833C514.935,167.996 515.274,167.16 515.486,166.307C515.728,166.207 515.969,166.105 516.211,166.004C516.192,166.141 516.176,166.275 516.148,166.42C516.132,166.505 515.784,167.631 515.429,168.372C515.149,168.526 514.869,168.679 514.588,168.833ZM529.684,151.64C531.031,153.742 531.92,155.65 532.406,157.942C529.179,159.914 525.549,161.413 522.242,162.93C520.333,163.807 518.409,164.652 516.479,165.485C516.765,161.326 514.292,156.919 511.504,153.736C517.15,152.868 522.588,151.477 527.092,147.841C527.258,147.707 527.037,147.418 526.863,147.544C525.779,148.325 524.664,148.992 523.526,149.573C523.539,149.501 523.534,149.427 523.513,149.358C524.439,148.826 525.331,148.23 526.182,147.56C526.213,147.562 526.243,147.555 526.266,147.525C526.284,147.502 526.301,147.479 526.319,147.456C527.634,146.406 528.799,145.614 528.896,144.053C531.026,141.23 533.142,138.396 535.246,135.554C537.657,132.299 540.644,126.399 544.882,125.042C545.228,126.98 544.554,130.801 544.497,131.153C544.209,132.945 543.817,134.72 543.408,136.486C543.313,136.893 543.21,137.304 543.103,137.718C542.807,137.772 542.51,137.823 542.214,137.879C542.749,135.554 543.284,133.229 543.82,130.904C543.841,130.81 543.697,130.769 543.673,130.864C543.101,133.218 542.528,135.572 541.955,137.925C541.843,137.946 541.73,137.965 541.617,137.986C541.474,138.014 541.535,138.232 541.678,138.206C541.75,138.192 541.823,138.18 541.896,138.166C541.823,138.466 541.75,138.766 541.677,139.066C541.177,141.123 540.79,143.122 539.841,144.949C539.757,144.817 539.652,144.694 539.552,144.574C539.466,144.47 539.303,144.537 539.267,144.649C539.208,144.837 539.177,145.023 539.163,145.218C539.151,145.397 539.395,145.399 539.453,145.257C539.483,145.183 539.507,145.109 539.529,145.035C539.588,145.11 539.637,145.192 539.664,145.278C539.613,145.368 539.567,145.459 539.513,145.548C539.385,145.575 539.258,145.607 539.131,145.636C539.004,145.542 538.888,145.417 538.819,145.337C538.572,145.052 538.393,144.724 538.27,144.374C539.386,142.939 540.476,141.454 541.36,139.864C541.425,139.748 541.261,139.659 541.186,139.762C540.171,141.163 539.16,142.545 538.11,143.892C538.037,143.816 537.877,143.876 537.903,144.01C537.91,144.048 537.922,144.085 537.931,144.123C537.25,144.99 536.552,145.842 535.822,146.673C533.94,147.449 532.211,148.519 530.768,149.969C530.703,149.818 530.484,149.729 530.339,149.871C530.051,150.142 529.773,150.422 529.504,150.712C529.36,150.862 529.368,151.084 529.504,151.235C530.08,151.876 530.772,152.24 531.521,152.515C532.06,153.584 532.589,154.651 532.983,155.8C533.114,156.181 533.182,156.812 533.333,157.354C533.156,157.471 532.977,157.586 532.798,157.699C532.396,155.428 531.347,153.138 529.783,151.563C529.733,151.513 529.644,151.578 529.684,151.64ZM533.796,157.698C533.756,157.569 533.71,157.414 533.659,157.242C533.999,157.03 534.335,156.815 534.671,156.599C534.698,156.769 534.719,156.943 534.739,157.117C534.425,157.312 534.109,157.504 533.796,157.698ZM537.588,155.311C537.561,155.304 537.531,155.304 537.502,155.324C537.384,155.402 537.024,154.508 536.884,154.156C537.304,154.277 537.724,154.394 538.146,154.506C538.058,154.686 537.984,154.872 537.954,155.061C537.954,155.066 537.957,155.071 537.957,155.076C537.834,155.155 537.711,155.232 537.588,155.311ZM558.381,153.482C558.375,153.233 558.001,153.233 557.994,153.482C557.993,153.519 557.993,153.556 557.992,153.593C557.313,153.677 556.628,153.731 555.939,153.762C555.892,153.711 555.805,153.718 555.763,153.769C553.529,153.857 551.267,153.715 549.118,153.567C546.199,153.366 543.301,152.954 540.429,152.399C539.601,152.239 538.769,152.075 537.943,151.887C538.015,151.46 538.153,151.05 538.365,150.66C538.558,150.24 538.79,149.829 539.024,149.432C539.23,149.083 539.456,148.74 539.698,148.41C543.085,148.903 546.451,149.518 549.785,150.301C551.397,150.68 553.002,151.094 554.596,151.544C555.553,151.813 556.506,152.095 557.456,152.388C557.886,152.521 559.406,153.263 559.604,153.204C559.527,153.226 559.497,153.288 559.499,153.35C559.13,153.423 558.758,153.488 558.383,153.541C558.382,153.521 558.382,153.502 558.381,153.482ZM559.733,154.796C559.295,154.822 558.857,154.838 558.418,154.848C558.423,154.682 558.407,154.513 558.403,154.352C558.402,154.305 558.401,154.258 558.4,154.212C558.769,154.169 559.138,154.118 559.505,154.056C559.421,154.325 559.485,154.636 559.733,154.796ZM562.963,150.152C563.884,150.849 564.196,151.088 564.032,151.714C562.912,152.352 561.72,152.807 560.482,153.126C560.471,153.071 560.44,153.019 560.378,152.999C557.166,151.943 553.918,151.036 550.64,150.26C552.168,149.145 553.773,148.337 555.46,147.635C557.939,148.146 560.937,148.618 562.963,150.152ZM566.058,151.771C565.37,149.509 563.096,148.262 561.015,147.529C560.045,147.187 559.046,146.892 558.032,146.63C558.077,146.584 558.047,146.499 557.969,146.514C557.899,146.527 557.831,146.548 557.762,146.563C555.395,145.967 552.949,145.563 550.565,145.272C551.598,143.251 552.349,139.883 552.573,136.34C552.593,136.331 552.612,136.323 552.632,136.314C552.765,136.256 552.701,136.102 552.591,136.063C553.032,128.116 550.807,119.453 543.185,123.234C538.185,125.715 534.898,131.126 532.103,135.72C531.997,135.894 531.891,136.07 531.785,136.244C531.199,131.824 524.681,132.11 522.107,134.742C521.374,135.494 520.851,136.359 520.495,137.289C520.46,137.346 520.424,137.431 520.314,137.645C520.299,137.674 520.326,137.697 520.353,137.693C519.861,139.198 519.773,140.847 519.921,142.448C520.119,144.584 520.262,147.322 521.847,148.896C521.367,149.269 520.875,149.628 520.357,149.962C515.83,151.253 511.145,151.82 506.48,152.483C503.517,152.904 500.554,153.319 497.592,153.746C495.332,154.072 492.962,154.282 490.714,154.836C487.863,154.227 484.074,156.353 481.926,158.428C475.769,154.448 470.45,149.201 464.742,144.607C464.741,144.606 464.741,144.607 464.741,144.606C464.41,144.1 464.094,143.585 463.804,143.057C463.925,141.7 462.164,140.943 461.208,140.213C458.656,138.264 456.076,136.353 453.461,134.489C452.627,133.895 451.786,133.311 450.946,132.725C450.965,132.729 450.984,132.733 451.002,132.738C451.177,132.784 451.243,132.528 451.076,132.47C450.79,132.37 450.501,132.283 450.21,132.208C445.894,129.209 441.507,126.309 437.045,123.533C434.611,122.019 432.13,120.556 429.565,119.272C427.324,118.041 425.044,116.885 422.716,115.835C422.653,115.807 422.598,115.898 422.661,115.93C423.721,116.465 424.773,117.013 425.819,117.569C424.439,117.006 423.034,116.505 421.595,116.09C419.043,115.355 416.41,114.877 413.75,114.799C412.065,114.749 409.766,114.496 408.613,115.975C408.6,115.992 408.621,116.015 408.637,115.999C410.674,114 415.894,115.436 418.236,116.027C419.97,116.465 421.644,117.051 423.29,117.726C420.133,116.884 416.86,116.51 413.506,116.778C413.362,116.789 413.359,117.014 413.506,117.005C417.697,116.755 421.704,117.374 425.568,118.748C431.266,122.958 437.195,126.884 443.014,130.92C443.237,131.075 443.459,131.234 443.682,131.39C443.605,131.4 443.527,131.409 443.453,131.416C440.234,131.72 437.021,132.132 433.833,132.67C432.978,132.814 427.021,133.909 424.126,135.199C421.991,133.305 419.874,131.39 417.775,129.454C415.078,126.968 411.994,124.484 409.878,121.423C409.919,121.372 409.958,121.321 410,121.269C410.079,121.172 409.978,121.007 409.857,121.084C409.808,121.115 409.767,121.155 409.721,121.19C409.075,120.224 408.534,119.199 408.126,118.1C408.149,118.06 408.169,118.022 408.192,117.98C408.26,117.859 408.125,117.762 408.02,117.818C407.89,117.442 407.772,117.059 407.676,116.664C407.669,116.633 407.614,116.638 407.618,116.672C407.671,117.113 407.757,117.539 407.865,117.954C407.433,118.409 407.244,119.135 407.214,119.732C407.203,119.953 407.554,119.954 407.559,119.732C407.573,119.186 407.75,118.786 407.982,118.359C408.318,119.453 408.832,120.463 409.462,121.409C408.848,122.026 408.569,122.962 408.598,123.82C406.709,121.338 405.791,118.64 407.557,116.01C407.686,115.818 407.398,115.601 407.24,115.765C404.174,118.96 406.383,123.173 408.921,125.912C410.338,127.441 411.832,128.918 413.362,130.365C416.193,133.701 419.194,136.896 422.334,139.94C423.212,140.792 424.109,141.79 425.069,142.712C424.462,143.199 423.963,143.845 423.676,144.535C422.398,147.602 424.472,150.687 426.593,152.736C429.925,155.953 433.692,158.842 437.346,161.682C439.703,163.515 442.326,165.972 445.109,167.567C445.504,167.947 445.899,168.328 446.294,168.708C444.975,169.136 443.616,169.514 442.316,169.99C442.289,169.941 442.248,169.899 442.185,169.893C441.838,169.86 441.857,169.859 441.6,170.097C441.586,170.11 441.587,170.124 441.58,170.137C441.425,170.04 441.251,170.043 441.058,170.156C441.045,170.159 441.033,170.162 441.021,170.165C440.312,169.931 439.6,169.928 438.77,170.098C437.511,170.356 436.359,171.058 435.101,171.365C434.992,171.392 434.882,171.41 434.773,171.433C432.878,168.399 430.183,165.612 426.73,165.195C422.137,164.64 417.719,168.129 415.82,172.078C413.316,177.285 413.436,182.954 414.419,188.519C414.427,188.568 414.499,188.546 414.492,188.499C413.73,183.305 413.582,177.542 416.469,172.928C418.82,169.173 423.81,164.978 428.47,167.399C430.276,168.338 431.774,169.933 432.98,171.75C432.665,171.805 432.351,171.867 432.041,171.948C428.985,172.752 427.24,174.642 426.084,177.508C425.984,177.756 426.367,177.892 426.499,177.684C427.95,175.397 430.242,174.021 432.767,173.307C432.802,173.321 432.841,173.314 432.865,173.282C433.151,173.203 433.438,173.127 433.729,173.065C433.745,173.061 433.761,173.057 433.777,173.053C434.546,174.418 435.165,175.846 435.635,177.175C437.055,181.188 437.395,185.141 437.242,189.36C437.237,189.489 437.418,189.502 437.457,189.389C439.052,184.72 438.558,179.419 436.612,174.941C436.279,174.174 435.887,173.368 435.44,172.561C435.711,172.465 435.982,172.365 436.255,172.261C437.757,172.327 439.259,172.395 440.728,172.761C441.196,172.877 441.659,173.02 442.108,173.197C443.384,174.335 444.592,175.456 445.536,177.073C445.535,177.162 445.542,177.249 445.533,177.339C445.47,177.187 445.246,177.24 445.281,177.409C445.318,177.586 445.355,177.764 445.392,177.941C445.43,178.121 445.695,178.106 445.741,177.941C445.775,177.822 445.797,177.707 445.821,177.593C445.851,177.65 445.882,177.705 445.911,177.764C446.76,179.487 447.299,181.259 447.614,183.072C447.498,183.107 447.382,183.141 447.266,183.176C447.146,183.211 447.197,183.397 447.317,183.362C447.428,183.33 447.538,183.298 447.649,183.266C447.96,185.15 448.031,187.079 447.954,189.046C447.947,189.206 448.18,189.198 448.198,189.046C448.346,187.748 448.435,186.413 448.427,185.077C448.651,186.817 448.627,188.577 448.212,190.331C448.084,190.867 447.91,191.666 447.639,192.333C447.384,192.681 447.112,193.022 446.811,193.348C446.797,193.363 446.795,193.386 446.787,193.406C446.59,193.526 446.367,193.672 446.313,193.732C445.583,194.539 445.9,193.454 445.55,194.535C445.489,194.724 445.78,194.849 445.873,194.671C446.171,194.551 446.468,194.43 446.765,194.31C446.852,194.341 446.958,194.288 447.003,194.213C447.071,194.098 447.127,193.982 447.191,193.867C447.235,193.902 447.279,193.938 447.324,193.973C447.46,194.083 447.657,193.895 447.52,193.777C447.28,193.569 449.793,188.764 449.977,187.91C450.359,186.143 450.364,184.333 450.113,182.552C451.243,182.225 452.372,181.897 453.501,181.57C455.251,181.063 457.179,180.302 459.058,179.976C459.668,181.525 460.229,183.086 460.479,184.744C460.635,185.782 460.67,186.713 460.503,187.751C460.459,188.241 460.35,188.716 460.177,189.176C460.041,189.631 459.838,190.04 459.58,190.412C454.88,191.818 450.217,193.324 445.636,194.907C445.552,194.818 445.422,194.777 445.287,194.859C442.524,196.545 440.177,196.494 437.087,196.534C435.343,196.557 433.553,196.854 431.886,196.625C432.904,193.915 433.351,190.984 433.518,188.096C433.746,184.144 433.719,179.938 431.315,176.609C431.253,176.523 431.109,176.603 431.17,176.694C433.424,180.054 433.274,184.217 432.968,188.096C432.735,191.047 432.15,193.8 431.202,196.497C430.288,196.277 429.42,195.859 428.629,195.092C428.606,195.069 428.571,195.104 428.594,195.127C429.357,195.953 430.205,196.453 431.11,196.764C430.735,197.803 430.31,198.836 429.823,199.867C429.713,200.1 430.029,200.292 430.172,200.071C430.808,199.082 431.327,198.037 431.756,196.955C433.269,197.325 434.922,197.265 436.613,197.322C437.595,197.356 438.535,197.431 439.44,197.461C439.427,197.509 439.418,197.561 439.422,197.621C439.546,199.291 441.303,200.229 442.864,199.936C444.308,199.664 445.722,198.162 445.96,196.636C449.064,196.3 452.28,195.376 455.329,194.555C454.963,194.76 455.799,195.701 456.107,196.295C456.625,197.292 457.1,198.3 457.532,199.34C458.231,201.025 458.831,202.75 459.545,204.43C460.215,206.009 460.87,208.031 462.276,208.494C461.905,208.726 461.541,208.973 461.188,209.246C460.933,209.444 460.961,209.701 461.112,209.891C458.35,212.539 455.976,216.657 459.583,218.775C460.8,219.489 462.23,219.454 463.636,219.16C464.557,220.431 466.21,220.849 467.731,220.439C469.634,219.927 470.898,218.294 471.489,216.494C471.494,216.478 471.492,216.464 471.496,216.447C473.239,215.702 474.946,214.875 476.602,213.954C478.112,213.115 479.589,212.21 481.008,211.225C481.656,210.775 482.654,210.232 482.847,209.37C483.324,207.244 480.27,206.911 478.925,206.693C475.025,206.063 470.733,205.704 466.83,206.631C468.717,203.799 469.929,200.219 471.23,197.195C471.851,195.751 473.202,193.521 473.227,191.675C473.512,191.895 473.816,192.106 474.12,192.309C477.762,194.748 481.561,196.965 485.301,199.249C492.758,203.802 500.204,208.374 507.66,212.93C510.342,214.57 513.086,216.201 515.932,217.59C515.932,217.651 515.991,217.713 516.059,217.671C516.064,217.668 516.07,217.665 516.076,217.661C519.866,219.498 523.839,220.893 528.089,221.277C530.234,221.471 532.428,221.397 534.555,220.997C534.524,221.069 534.535,221.139 534.548,221.344C534.558,221.506 534.783,221.646 534.907,221.492C535.088,221.267 535.27,221.039 535.45,220.808C536.318,220.604 537.171,220.347 538.002,220.023C540.14,219.188 543.18,217.786 543.667,215.266C544.306,211.964 540.642,209.409 538.47,207.602C536.248,205.753 533.698,203.42 530.994,201.909C531.687,201.724 532.368,201.502 533.03,201.237C536.943,199.674 539.972,195.273 536.822,191.48C536.491,191.082 535.859,191.594 536.115,192.026C536.345,192.415 536.503,192.808 536.604,193.199C536.265,193.054 535.904,193.115 535.352,193.246C535.326,193.252 535.298,193.264 535.271,193.27C528.08,187.425 520.961,181.532 513.573,176.024C513.999,176.292 514.419,176.565 514.844,176.832C518.594,179.182 522.393,181.452 526.137,183.81C529.611,185.998 533.434,188.026 536.082,191.239C536.173,191.35 536.354,191.207 536.28,191.086C534.376,187.991 531.309,186.205 528.344,184.241C524.501,181.694 520.716,179.062 516.886,176.496C514.952,175.2 513.008,173.919 511.061,172.645C511.753,172.465 512.443,172.28 513.136,172.104C513.344,172.051 513.255,171.74 513.047,171.783C512.701,171.855 512.354,171.927 512.007,171.999C511.939,172.013 511.903,172.055 511.886,172.104C511.495,172.208 511.104,172.313 510.713,172.418C510.564,172.321 510.415,172.225 510.266,172.128C511.966,171.297 515.931,169.493 516.338,169.279C519.067,167.842 521.758,166.332 524.434,164.799C529.787,161.733 535.051,158.518 540.239,155.179C540.303,155.137 540.353,155.089 540.396,155.038C544.06,155.804 547.898,156.141 551.612,156.326C554.367,156.463 567.916,157.88 566.058,151.771Z" style="fill:rgb(35,31,32);fill-rule:nonzero;"/>
    </g>
</svg>
