<?xml version="1.0" encoding="UTF-8" standalone="no"?>
<!DOCTYPE svg PUBLIC "-//W3C//DTD SVG 1.1//EN" "http://www.w3.org/Graphics/SVG/1.1/DTD/svg11.dtd">
<svg width="100%" height="100%" viewBox="0 0 800 600" version="1.1" xmlns="http://www.w3.org/2000/svg" xmlns:xlink="http://www.w3.org/1999/xlink" xml:space="preserve" xmlns:serif="http://www.serif.com/" style="fill-rule:evenodd;clip-rule:evenodd;stroke-linecap:round;stroke-linejoin:round;">
    <g id="Czech_Republic">
        <path d="M307.14,121.978L307.075,122.439L306.772,123.45L306.483,123.991L306.081,124.463L305.547,124.798L302.245,125.085L301.795,125.43L301.456,126.02L301.244,126.913L301.04,129.593L300.682,130.892L300.129,132.009L299.424,132.882L298.604,133.449L297.705,133.653L296.77,133.43L291.056,127.498L290.294,127.146L289.683,127.327L289.267,128.172L288.036,135.315L286.651,136.612L286.172,137.279L285.785,138.051L285.561,138.916L285.619,140.744L285.47,141.479L285.169,142.091L282.699,144.397L282.24,145.02L280.237,150.23L278.698,151.202L278.193,151.749L277.813,152.417L277.645,153.206L277.775,154.117L283.931,173.52L291.73,179.977L292.576,183.925L291.83,184.45L291.424,185.062L291.102,185.729L290.948,186.32L290.83,187.106L290.83,188.158L290.693,189.558L290.32,190.891L290.149,191.322L289.981,191.664L289.286,192.179L288.396,192.653L285.207,195.322L284.257,195.881L283.612,196.157L283.035,196.104L282.458,195.949L281.01,195.286L280.127,195.126L279.721,195.464L279.618,196.147L279.772,196.84L280.279,198.359L280.45,199.016L280.501,199.689L280.383,200.789L280.366,201.376L280.501,201.931L280.907,203.151L281.061,203.726L281.061,204.365L280.96,204.782L280.433,205.572L280.245,205.97L280.009,206.688L279.634,207.549L278.768,208.851L277.905,209.326L277.056,209.507L275.132,209.375L272.044,209.631L271.195,209.88L270.279,210.477L267.915,212.457L267.119,212.847L266.559,212.981L262.99,211.644L254.364,213.123L252.159,212.848L249.591,211.914L246.912,211.387L242.34,211.538L241.017,211.849L240.168,212.248L239.711,212.983L239.456,213.727L239.336,214.674L239.314,215.401L239.456,216.491L239.422,217.065L239.201,217.703L238.549,218.712L237.703,219.058L236.787,219.146L235.31,219.048L234.274,219.464L227.788,223.543L227.127,224.295L226.442,225.234L225.814,225.885L224.592,226.853L223.83,226.977L222.998,226.667L222.286,226.137L221.403,225.755L220.47,225.836L210.04,231.282L208.116,231.795L207.572,231.795L207.115,231.645L206.437,231.309L205.757,231.132L204.552,231.115L203.619,231.423L202.823,231.91L202.45,232.229L201.426,233.306L196.744,236.368L190.34,239.031L189.063,239.765L188.452,240.454L186.992,242.779L185.941,245.308L184.888,246.631L183.616,247.496L180.81,250.318L179.725,250.875L178.027,251.342L176.647,252.056L175.512,253.687L173.186,255.353L171.671,255.34L166.751,254.101L165.748,253.595L165.053,252.849L163.86,251.192L162.843,250.054L161.568,248.89L159.274,247.242L158.459,246.404L158.12,245.866L158.305,245.177L158.509,244.802L160.094,242.732L160.534,242.017L160.907,241.249L160.669,239.854L159.94,237.982L157.627,234.404L156.795,232.672L156.456,231.293L156.711,230.492L156.915,229.648L157.016,228.746L156.881,226.979L156.489,224.794L156.304,222.776L156.27,221.634L156.472,217.921L156.438,216.466L156.253,214.986L155.71,212.719L155.15,211.612L154.455,210.802L152.769,209.875L149.681,209.078L146.35,208.908L143.618,208.341L142.226,207.301L141.428,206.236L140.711,204.769L140.151,204.045L139.49,203.536L132.34,202.703L130.474,201.637L126.802,198.566L129.189,196.207L130.739,194.369L131.452,191.234L132.165,184.223L133.07,183.592L133.986,183.37L134.891,183.566L135.739,184.206L136.7,184.491L137.718,184.58L138.747,184.5L139.742,184.224L139.753,184.224L139.776,184.206L142.864,183.139L148.633,183.477L151.325,181.458L152.897,178.603L156.539,168.838L158.666,169.034L160.442,170.281L162.263,171.091L164.559,169.915L165.724,166.423L166.335,165.327L170.441,162.404L171.097,161.691L171.165,161.067L171.47,160.853L172.805,161.343L173.393,162.012L174.931,164.606L175.655,165.515L178.098,166.718L180.134,166.21L181.989,164.517L183.889,162.137L184.975,161.522L185.631,160.711L185.733,159.668L185.1,158.286L186.921,156.903L188.38,155.012L188.81,152.683L187.543,150.032L192.022,147.317L196.988,146.379L206.818,146.433L208.928,146.013L213.091,144.467L215.455,144.226L220.477,144.789L222.445,144.387L225.612,142.403L226.279,142.385L226.912,142.162L227.659,141.09L227.716,140.178L227.456,138.962L227.32,137.496L227.784,135.815L228.791,134.572L229.719,134.536L230.782,134.858L232.162,134.652L233.282,133.811L234.956,131.664L236.132,130.823L238.27,130.358L242.274,130.877L244.378,130.734L261.436,122.882L262.771,121.628L264.773,118.599L265.961,117.425L269.897,116.6L278.482,117.281L281.694,114.547L282.35,110.224L279.432,108.528L275.394,107.334L272.6,104.56L272.702,102.737L273.63,102.09L273.8,101.74L271.617,100.851L267.918,100.366L266.64,99.522L267.862,97.752L269.4,92.745L272.024,90.065L275.508,89.512L279.58,90.848L280.406,91.603L280.983,92.57L281.696,93.519L282.884,94.166L284.094,94.193L287.159,92.831L291.129,93.056L292.373,92.409L293.323,90.003L293.956,91.478L294.194,92.526L294.567,93.569L295.596,94.994L296.953,95.947L299.905,96.693L301.251,97.753L302.575,99.361L303.412,100.735L303.751,102.433L303.547,105.046L302.699,107.137L301.387,109.632L300.787,111.749L302.043,112.745L308.095,110.224L309.419,110.251L310.007,112.216L309.373,114.521L307.518,118.887L307.14,121.978Z" style="fill:none;fill-rule:nonzero;stroke:black;stroke-width:0.5px;"/>
        <path d="M307.14,121.978L307.672,123.277L311.473,124.352L313.034,125.221L317.219,128.409L321.28,129.322L323.655,129.412L325.42,128.929L326.483,127.703L327.524,125.697L329.255,121.048L331.585,121.129L335.544,120.018L348.043,120.941L348.269,119.444L348.133,113.42L348.009,112.927L347.941,112.263L348.043,111.294L348.348,110.702L349.423,109.482L349.762,108.603L349.638,103.558L347.975,101.124L346.199,99.714L345.735,97.746L345.746,97.746L346.244,97.153L346.798,96.695L347.42,96.398L348.042,96.263L349.626,95.104L350.135,94.304L350.44,92.87L352.521,94.789L358.064,96.012L358.992,97.728L360.281,99.004L361.819,99.768L363.052,99.516L363.414,97.746L363.414,97.728L364.398,95.454L365.812,94.456L367.09,95.103L367.599,97.745L368.628,100.296L374.861,100.395L377.779,101.85L379.532,104.697L379.419,106.376L378.469,108.198L377.7,111.392L378.028,113.858L379.046,116.916L380.335,119.784L381.5,121.666L383.683,123.422L385.663,124.3L387.326,125.679L388.638,128.929L388.672,130.612L388.367,132.348L388.276,133.994L388.977,135.425L390.343,135.859L390.527,135.917L391.737,134.638L392.778,132.795L393.796,131.524L398.355,131.139L407.149,134.229L408.699,139.209L412.335,146.595L412.588,147.958L412.393,148.934L411.991,149.885L411.712,151.202L411.57,152.76L411.726,156.12L412.046,157.677L412.539,158.991L413.888,160.727L414.386,161.61L414.718,162.569L414.906,163.581L414.954,164.623L414.887,165.673L414.117,169.351L414.151,170.033L414.29,170.694L418.041,179.336L418.272,180.34L418.315,181.405L418.137,182.558L417.719,183.511L417.099,184.019L416.305,184.18L407.922,182.694L406.679,181.849L404.387,179.395L403.767,179.07L403.137,178.957L402.49,179.01L399.669,179.978L399.058,180.472L398.714,181.391L398.341,186.874L398.091,188.093L397.617,189.011L396.965,189.559L396.251,189.776L395.489,189.691L394.693,189.332L393.058,187.923L389.71,183.609L387.613,181.915L382.842,179.979L381.666,179.99L380.598,180.433L375.863,185.786L375.226,186.068L374.543,185.989L373.8,185.605L367.749,180.495L366.001,179.877L365.378,179.892L364.909,180.028L364.582,180.215L364.329,180.449L360.438,176.944L359.284,174.815L358.317,169.759L355.484,170.516L354.748,170.355L353.935,170.052L353.271,169.42L351.186,166.935L350.609,166.543L350.049,166.382L347.43,166.57L346.531,166.142L345.48,165.259L344.715,165.143L343.917,165.348L342.674,165.918L341.775,165.891L340.707,165.446L340.079,165.41L339.552,165.66L339.146,166.158L337.871,168.23L337.238,169.018L334.982,170.934L334.285,171.721L333.845,172.393L332.691,174.698L331.909,175.669L330.993,176.488L329.173,177.476L328.341,178.055L327.052,179.336L326.085,180.074L322.076,181.982L317.642,184.952L307.828,187.516L305.923,187.68L304.973,187.552L304.668,187.331L304.413,186.93L304.276,186.441L304.225,185.885L304.158,185.392L304.074,184.974L303.87,184.471L303.649,184.05L303.158,183.8L302.393,183.685L300.714,183.8L298.639,183.462L293.762,183.579L292.574,183.925L291.728,179.977L283.929,173.52L277.773,154.117L277.643,153.206L277.811,152.417L278.191,151.749L278.696,151.202L280.235,150.23L282.238,145.02L282.697,144.397L285.167,142.091L285.468,141.479L285.617,140.744L285.559,138.916L285.783,138.051L286.17,137.279L286.649,136.612L288.034,135.315L289.265,128.172L289.681,127.327L290.292,127.146L291.054,127.498L296.768,133.43L297.703,133.653L298.602,133.449L299.422,132.882L300.127,132.009L300.68,130.892L301.038,129.593L301.242,126.913L301.454,126.02L301.793,125.43L302.243,125.085L305.545,124.798L306.079,124.463L306.481,123.991L306.77,123.45L307.073,122.439L307.14,121.978Z" style="fill:none;fill-rule:nonzero;stroke:black;stroke-width:0.5px;"/>
        <path d="M32.758,214.903L38.008,215.292L40.112,216.789L40.757,218.374L40.723,221.313L41.153,222.649L42.375,223.728L43.97,224.223L47.115,224.303L47.896,224.736L48.258,225.355L48.202,226.142L47.716,227.106L47.546,227.133L47.399,227.186L47.252,227.283L47.116,227.407L46.822,227.734L46.72,228.079L46.833,228.459L47.116,228.857L49.028,230.793L49.503,231.438L49.955,232.552L50.147,233.551L50.26,234.435L51.572,239.143L52.681,240.874L54.547,241.112L56.074,240L56.074,238.481L55.441,236.653L55.113,234.533L55.452,231.493L56.04,229.884L58.2,227.108L58.494,224.393L59.388,223.057L60.61,222.199L61.854,220.889L65.248,214.7L66.424,213.531L69.637,211.724L70.938,210.554L71.334,210.324L72.318,210.36L72.759,210.121L72.997,209.492L72.929,208.818L72.782,208.242L72.759,207.888L73.053,207.117L73.279,206.248L73.664,205.397L74.478,204.688L77.509,202.08L81.921,200.776L90.111,200.164L95.959,201.229L97.384,201.069L98.606,199.889L101.027,196.126L102.43,194.732L104.217,194.084L105.97,193.977L107.927,194.252L108.606,193.986L110.144,192.965L111.128,192.761L112.044,193.036L122.179,199.224L125.923,199.437L126.805,198.566L130.477,201.637L132.343,202.703L139.493,203.536L140.154,204.045L140.714,204.769L141.431,206.236L142.229,207.301L143.621,208.341L146.353,208.908L149.684,209.078L152.772,209.875L154.458,210.802L155.153,211.612L155.713,212.719L156.256,214.986L156.441,216.466L156.475,217.921L156.273,221.634L156.307,222.776L156.492,224.794L156.884,226.979L157.019,228.746L156.918,229.648L156.714,230.492L156.459,231.293L156.798,232.672L157.63,234.404L159.943,237.982L160.672,239.854L160.91,241.249L160.537,242.017L160.097,242.732L158.512,244.802L158.308,245.177L158.123,245.866L158.462,246.404L159.277,247.242L161.571,248.89L162.846,250.054L161.72,250.556L160.991,251.295L160.602,252.204L160.491,253.222L160.597,254.285L160.861,255.331L161.626,257.114L161.703,257.743L161.22,258.204L154.869,259.607L154.446,260.053L154.227,260.733L154.177,261.592L154.268,262.584L155.555,267.637L155.392,268.269L154.978,268.714L154.379,268.983L152.902,269.02L151.49,268.464L147.577,264.037L140.026,262.556L139.521,262.665L138.376,263.378L136.019,265.974L125.883,271.505L125.301,272.019L124.868,272.883L123.394,280.074L122.923,280.672L122.228,280.874L120.46,280.456L117.526,278.969L117.16,278.928L116.292,279.167L113.567,281.207L113.165,281.302L112.759,281.214L112.348,280.973L109.96,278.457L101.461,278.285L100.735,278.676L97.431,282.561L96.911,282.901L95.348,283.164L93.434,282.959L90.207,281.756L89.601,281.784L89.019,282.047L86.051,285.046L85.238,285.509L84.204,285.692L79.023,284.71L78.344,283.481L76.783,282.875L72.304,280.24L72.429,278.395L73.187,276.101L72.904,273.613L71.06,271.854L67.033,271.432L65.359,269.778L65.246,269.778L48.686,260.888L48.335,259.805L48.312,258.255L48.086,256.51L47.113,254.827L45.529,253.452L43.776,252.438L42.226,251.018L41.276,248.434L41.208,245.876L41.977,241.993L41.66,239.424L40.823,237.393L39.59,235.485L36.909,232.534L31.502,229.148L30.371,227.114L31.74,225.044L32.871,224.301L33.606,223.505L33.81,221.31L33.403,218.867L32.521,217.344L30,214.698L32.758,214.903Z" style="fill:none;fill-rule:nonzero;stroke:black;stroke-width:0.5px;"/>
        <path d="M188.288,442.183L187.583,442.033L186.067,442.731L185.026,444.566L183.895,447.468L181.339,446.237L177.878,443.748L174.733,440.793L173.161,438.233L173.093,433.551L171.871,430.644L167.222,425.898L163.896,421.434L162.561,420.277L160.366,419.43L153.749,419.119L150.65,417.304L148.908,414.495L147.471,411.201L137.223,397.24L135.866,396.469L135.843,396.452L132.348,392.275L131.85,390.715L131.703,389.094L131.092,387.724L129.192,386.935L126.115,383.665L124.531,382.381L122.676,381.383L118.491,380.229L116.987,380.706L117.473,382.867L115.426,383.145L108.978,382.199L106.806,381.409L105.075,379.612L101.489,371.561L99.283,369.275L94.238,366.893L92.1,365.11L90.856,362.675L90.313,359.943L89.996,354.416L89.849,351.577L89.035,350.915L87.881,351.08L86.648,350.705L85.46,349.459L84.6,348.196L83.91,346.688L83.209,344.666L82.768,342.687L82.259,338.945L81.49,337.113L80.336,335.839L77.723,334.399L76.603,333.037L76.682,332.627L77.202,331.3L76.331,330.872L76.048,330.645L76.975,328.575L76.896,326.33L75.991,324.539L74.475,323.744L70.833,321.996L69.159,320.851L67.587,319.426L65.325,316.164L64.194,313.994L63.651,312.209L64.941,309.662L69.466,307.736L71.208,305.967L71.559,303.181L71.616,299.623L72.283,297.23L74.478,297.905L75.281,295.283L77.803,290.607L78.685,288.009L79.024,284.708L84.205,285.69L85.239,285.507L86.052,285.044L89.02,282.045L89.602,281.782L90.208,281.754L93.435,282.957L95.349,283.162L96.912,282.899L97.432,282.559L100.736,278.674L101.462,278.283L109.961,278.455L112.349,280.971L112.76,281.212L113.166,281.3L113.568,281.205L116.293,279.165L117.161,278.926L117.527,278.967L120.461,280.454L122.229,280.872L122.924,280.67L123.395,280.072L124.869,272.881L125.302,272.017L125.884,271.503L136.02,265.972L138.377,263.376L139.522,262.663L140.027,262.554L147.578,264.035L151.491,268.462L152.903,269.018L154.38,268.981L154.979,268.712L155.393,268.267L155.556,267.635L154.269,262.582L154.178,261.59L154.228,260.731L154.447,260.051L154.87,259.605L161.221,258.202L161.704,257.741L161.627,257.112L160.862,255.329L160.598,254.283L160.492,253.22L160.603,252.202L160.992,251.293L161.721,250.554L162.847,250.052L163.864,251.19L165.057,252.847L165.752,253.593L166.755,254.099L171.675,255.338L173.19,255.351L175.516,253.685L176.822,257.097L176.873,257.837L176.822,258.753L176.5,259.59L176.06,260.487L175.601,261.712L175.618,262.444L176.024,262.972L176.568,263.2L177.179,263.281L177.727,263.253L178.915,262.955L181.137,261.712L181.697,261.536L182.325,261.555L183.768,262.118L185.572,262.539L187.474,263.464L192.789,268.604L193.756,269.212L195.714,269.459L197.241,269.313L198.718,268.965L199.601,268.89L200.686,268.97L202.747,269.55L203.933,270.1L204.885,270.734L207.752,273.9L208.497,274.541L209.115,274.885L212.763,276.001L213.458,276.45L213.915,277.074L214.019,277.737L214.257,278.507L219.997,281.442L220.968,282.473L221.427,283.285L221.256,283.883L221.189,284.621L221.223,285.342L221.411,286.203L222.479,289.837L222.599,290.663L222.546,291.115L222.428,291.417L222.156,291.592L221.699,291.807L221.105,291.988L220.047,292.092L219.725,292.176L219.487,292.426L219.249,292.991L219.215,293.724L219.282,295.19L219.248,295.953L219.147,296.611L219.029,297.075L217.653,300.538L217.653,301.011L217.72,301.607L217.975,302.615L218.093,303.338L218.026,304.191L216.941,307.941L216.753,308.799L216.719,309.804L216.871,310.243L217.143,310.487L218.213,310.917L218.992,311.371L219.264,311.95L219.281,312.465L218.925,313.209L216.21,316.258L215.364,317.047L214.525,317.467L211.319,318.266L209.943,318.842L208.705,319.625L207.411,320.88L206.817,321.681L206.528,322.48L206.968,323.179L208.632,324.682L208.774,325.289L208.599,325.783L207.716,326.299L207.055,326.858L207.072,327.085L208.486,327.95L208.758,328.39L208.825,328.806L208.633,329.252L207.988,329.811L207.7,330.247L207.597,330.849L207.852,332.15L208.294,332.761L208.842,333.138L209.332,333.303L209.876,333.574L210.607,334.094L211.574,335.233L211.997,336.07L212.201,337.013L212.1,341.191L212.251,342.926L212.523,343.938L212.896,344.713L213.949,346.005L214.694,347.146L214.937,348.322L214.937,349.306L214.615,350.945L214.141,352.417L213.932,352.887L213.795,353.474L213.812,355.01L215.363,358.48L216.753,363.931L216.907,365.366L216.8,366.2L216.038,369.359L215.85,371.953L216.088,374.025L216.682,376.987L216.817,378.419L216.682,379.548L216.223,380.582L214.114,384.117L213.13,386.278L212.519,388.389L212.076,389.569L211.703,390.297L211.179,390.747L209.277,391.892L208.837,392.299L208.31,392.962L208.175,393.616L208.209,394.163L208.82,395.766L208.82,396.692L208.683,397.346L208.344,397.97L207.644,398.887L207.252,399.542L207.185,400.19L207.339,400.779L207.779,401.394L209.311,402.97L209.787,404.148L209.703,404.775L209.109,405.329L208.219,405.653L207.084,406.394L206.1,407.358L203.214,412.828L202.156,414.276L201.733,414.587L201.257,414.682L199.934,414.414L198.917,414.899L197.763,416.207L196.354,419.853L195.96,422.277L196.015,424.082L196.195,425.047L196.298,425.877L196.264,427.314L195.947,428.303L195.432,429.191L193.073,431.526L190.529,435.498L188.148,440.574L188.283,442.135L188.288,442.183Z" style="fill:none;fill-rule:nonzero;stroke:black;stroke-width:0.5px;"/>
        <path d="M220.391,475.944L218.253,473.721L212.97,463.157L210.425,459.177L208.887,458.317L204.809,457.672L202.739,456.692L200.873,454.826L199.165,452.228L198,449.198L197.729,446.047L195.738,446.271L193.872,445.238L192.017,443.748L190.094,442.568L188.288,442.184L188.284,442.137L188.149,440.576L190.53,435.5L193.074,431.528L195.433,429.193L195.948,428.305L196.265,427.316L196.299,425.879L196.196,425.049L196.016,424.084L195.961,422.279L196.355,419.855L197.764,416.209L198.918,414.901L199.935,414.416L201.258,414.684L201.734,414.589L202.157,414.278L203.215,412.83L206.101,407.36L207.085,406.396L208.22,405.655L209.11,405.331L209.704,404.777L209.788,404.15L209.312,402.972L207.78,401.396L207.34,400.781L207.186,400.192L207.253,399.544L207.645,398.889L208.345,397.972L208.684,397.348L208.821,396.694L208.821,395.768L208.21,394.165L208.176,393.618L208.311,392.964L208.838,392.301L209.278,391.894L211.18,390.749L211.704,390.299L212.077,389.571L212.52,388.391L213.131,386.28L214.115,384.119L216.224,380.584L216.683,379.55L216.818,378.421L216.683,376.989L216.089,374.027L215.851,371.955L216.039,369.361L216.801,366.202L216.904,365.363L216.75,363.928L215.36,358.477L213.809,355.007L220.16,351.271L220.788,351.193L221.303,351.325L222.575,352.212L223.186,352.418L225.478,352.501L226.207,352.666L226.818,352.892L227.436,353.346L229.42,354.49L230.336,354.599L231.474,354.469L233.432,353.449L234.026,352.997L234.856,352.569L240.139,350.915L240.495,350.635L240.767,350.313L241.361,348.37L241.888,347.22L242.6,346.627L243.822,345.966L244.604,345.827L245.441,345.921L246.542,346.523L247.884,347.587L248.529,347.8L250.564,347.961L251.978,348.457L254.881,348.566L261.266,347.725L263.438,346.836L265.412,344.849L265.871,344.534L266.395,344.365L267.703,344.117L269.456,344.13L270.762,344.469L271.339,344.778L271.695,345.152L272.101,346.255L272.322,346.696L272.56,346.948L272.865,347.07L273.288,347.14L273.815,347.34L274.205,347.614L274.664,348.159L274.883,348.552L275.41,349.323L275.653,349.558L275.925,349.767L276.247,349.937L276.74,350.111L277.572,350.185L278.69,350.053L283.82,347.165L284.719,346.965L286.078,346.904L287.538,347.269L289.358,348.281L291.412,348.552L303.571,348.059L304.91,348.42L304.809,348.926L304.775,349.396L304.826,349.824L305.014,350.015L307.616,350.434L308.785,350.277L309.973,349.929L312.587,348.282L314.186,346.626L314.934,346.278L318.479,345.516L320.013,344.298L320.708,343.253L320.98,338.831L321.047,338.308L321.15,337.828L321.828,336.44L322.285,335.759L322.624,335.358L323.966,334.198L324.493,334.014L324.916,334.109L325.515,334.747L326.297,335.819L326.653,336.186L327.23,336.518L330.469,337.512L331.07,338.026L331.443,338.664L331.51,339.117L331.561,340.207L332.121,340.557L333.225,340.661L335.329,340.277L336.652,340.748L337.381,341.219L337.643,341.768L337.982,342.838L338.321,343.591L338.778,344.281L339.338,344.9L339.848,345.354L340.339,345.667L340.849,345.867L341.561,345.763L343.119,347.433L343.571,348.185L343.845,348.98L343.838,349.775L343.449,350.525L342.696,351.103L338.827,352.229L338.197,352.659L337.92,353.326L339.55,359.215L339.843,361.958L339.754,365.053L337.443,374.188L337.419,375.373L337.7,376.403L338.179,377.212L339.99,378.975L340.298,379.416L340.502,380.003L340.574,380.813L340.319,384.276L340.434,385.106L340.747,385.951L341.319,386.823L345.426,390.669L347.501,391.935L348.504,392.073L349.48,391.754L351.361,390.011L352.316,389.675L353.259,389.767L355.022,390.792L357.47,393.191L360.616,395.291L363.502,399.144L367.898,402.016L368.374,401.996L368.841,401.667L370.755,398.747L371.306,398.353L371.914,398.165L372.595,398.205L378.347,401.222L378.804,401.526L380.05,401.872L385.377,402.496L386.317,402.868L386.928,403.738L387.368,405.153L387.589,407.877L387.861,409.365L388.217,410.498L388.761,411.217L393.958,416.17L394.364,416.403L394.874,416.508L396.706,416.179L397.199,416.157L402.362,417.103L403.923,416.991L408.17,415.288L408.629,415.185L409.002,415.211L409.408,415.487L414.607,420.629L415.302,421.553L415.506,422.15L415.487,422.6L415.201,422.997L414.742,423.351L414.182,423.648L413.437,423.833L411.02,423.989L410.445,424.097L410.156,424.381L409.901,425.049L409.781,425.783L409.663,426.98L409.425,427.795L408.881,428.909L405.32,433.127L404.856,433.791L404.652,434.438L404.416,435.774L404.505,436.456L404.652,436.878L404.856,436.951L405.2,436.951L405.575,437.107L405.914,437.516L406.388,438.647L406.797,439.391L407.475,439.862L408.237,440.034L409.969,440.171L411.248,440.448L411.772,440.783L412.265,441.257L412.808,442.114L412.909,442.704L412.909,443.389L412.382,445.132L410.713,449.351L410.307,450.685L409.85,451.684L409.578,453.259L409.57,453.3L407.06,452.322L401.653,447.622L399.3,446.27L394.436,444.625L389.176,441.937L386.733,441.239L381.609,441.179L381.066,440.8L380.614,439.973L380.06,439.283L379.223,439.292L378.782,439.973L378.51,442.213L378.148,443.092L376.632,444.918L376.066,445.28L367.718,447.536L365.546,447.493L366.27,445.116L366.315,442.851L365.851,440.585L365.048,438.232L356.53,437.534L350.444,435.439L348.046,435.749L347.695,436.025L347.525,436.585L347.525,437.361L347.627,438.266L346.134,441.782L346.089,446.528L346.542,451.624L346.531,456.227L344.212,466.645L343.42,468.741L343.239,469.9L343.454,470.947L343.929,472.261L344.415,473.334L344.653,473.634L343.397,476.543L341.18,476.749L335.524,474.424L329.812,473.634L328.161,474.269L327.516,475.848L327.075,477.864L325.978,479.811L325.424,482.984L319.666,488.058L317.596,491.425L317.2,495.899L317.256,500.961L316.702,505.263L316.206,505.76L314.507,507.464L312.709,507.344L311.849,506.263L311.204,504.707L310.028,503.146L309.315,502.988L307.641,503.574L306.793,503.48L306.442,502.783L306.431,501.68L306.295,500.624L305.594,500.004L303.908,500.141L300.628,501.724L298.988,502.092L297.699,501.776L293.333,499.483L290.709,496.385L289.114,497.489L286.659,504.021L284.928,505.804L279.238,508.262L277.032,510.035L276.172,510.377L275.12,510.497L264.261,506.651L248.753,504.907L245.032,503.342L244.116,502.521L242.227,500.16L241.752,499.253L241.243,496.994L241.447,496.515L242.069,496.284L242.804,494.735L243.132,494.495L243.664,494.598L244.162,494.444L244.366,493.408L244.083,492.398L243.427,491.936L242.669,491.628L242.115,491.106L241.414,489.744L239.593,486.942L238.631,485.896L231.267,481.833L228.869,479.835L226.878,478.274L224.797,477.133L220.391,475.944Z" style="fill:none;fill-rule:nonzero;stroke:black;stroke-width:0.5px;"/>
        <path d="M407.151,134.228L420.256,138.83L421.5,139.661L422.948,141.886L423.751,142.672L424.905,143.038L434,140.831L436.715,141.09L436.953,142.27L437.304,143.324L442.835,152.763L443.536,153.013L446.567,152.924L453.049,150.478L454.859,150.737L456.33,152.165L457.755,154.878L458.705,157.215L459.305,159.596L459.056,161.647L457.484,162.931L457.269,163.492L457.178,164.045L457.257,164.589L457.483,165.106L462.132,164.251L468.919,157.662L473.534,158.135L476.995,160.792L478.658,161.577L480.502,161.149L481.837,159.464L482.629,157.261L483.432,155.53L484.846,155.227L488.816,155.307L492.391,156.226L495.751,158.135L505.072,168.038L506.067,171.324L502.628,172.74L503.047,174.04L503.047,174.61L502.742,175.091L502.267,176.088L502.097,176.96L501.95,178.286L501.961,179.3L502.267,179.202L501.328,180.518L499.077,182.75L498.048,184.199L496.17,184.617L492.663,183.639L490.944,184.199L490.096,186.421L488.456,187.834L486.533,188.98L484.848,190.393L484.248,190.633L483.241,191.273L482.574,191.335L483.106,193.245L483.31,193.769L481.127,193.272L480.267,195.998L481.296,199.069L484.848,199.699L486.262,204.126L486.782,205.119L488.185,206.254L488.988,206.077L489.769,205.394L491.047,204.977L496.035,204.977L497.076,205.305L497.845,206.901L497.924,208.497L497.833,210.057L498.116,211.554L500.062,214.15L504.937,215.939L507.369,217.648L508.941,219.87L511.724,224.949L513.308,227.107L514.699,229.627L518.013,233.092L519.201,236.326L520.445,242.154L521.474,244.29L523.397,246.813L511.81,243.068L511.24,243.359L510.795,243.95L510.466,244.779L510.242,245.79L510.076,248.11L509.843,249.169L509.203,249.988L497.881,255.39L497.256,255.928L496.797,256.676L496.287,258.815L495.878,259.753L495.335,260.526L494.686,261.14L493.185,261.93L483.404,262.849L481.706,263.538L480.116,264.736L475.874,261.067L474.611,260.766L474.094,260.403L472.362,258.206L471.941,257.844L470.984,257.619L469.743,256.963L468.444,255.77L467.357,254.157L466.544,252.437L465.883,251.931L459.592,250.671L458.729,250.026L458.234,249.111L458.005,248.016L457.976,244.55L457.863,243.634L457.541,242.988L456.935,242.538L453.9,241.626L449.333,241.707L448.306,242.221L441.337,249.087L440.714,249.391L440.255,249.247L439.803,248.842L439.373,248.21L438.606,246.423L437.594,242.018L437.173,241.449L436.601,241.211L431.164,242.81L430.474,243.639L429.969,244.724L428.524,249.36L427.993,250.031L427.291,250.26L426.447,250.071L421.996,247.022L421.426,246.833L418.076,247.833L416.465,247.812L412.194,245.696L410.53,245.827L408.414,246.889L401.748,253.166L400.906,253.232L394.872,250.955L395.194,250.475L395.127,249.77L394.701,248.703L393.261,246.554L392.208,245.28L391.371,244.449L389.623,243.231L389.318,242.835L389.049,242.296L389.083,241.412L389.251,240.902L391.033,239.047L391.492,238.367L391.627,238.031L391.762,237.642L391.832,237.218L391.611,236.264L389.93,231.404L389.456,229.583L389.201,228.177L389.184,225.861L388.778,222.933L388.456,221.964L387.963,220.969L387.064,220.145L386.328,219.831L385.532,219.775L381.052,220.358L378.06,219.641L377.06,219.562L375.04,220.014L374.27,220.076L373.474,220.001L372.844,219.756L372.252,219.101L371.877,218.19L371.572,216.225L371.165,214.873L370.232,213.355L369.554,212.698L368.873,212.248L363.455,209.908L363.166,209.695L362.93,209.056L362.776,207.921L362.93,205.395L363.286,204.015L363.575,203.185L364.525,201.891L365.458,200.169L365.831,199.201L366.002,197.792L365.915,196.109L364.915,189.168L364.694,188.426L364.338,187.631L363.593,186.272L363.304,185.246L363.371,183.885L363.744,182.991L363.831,182.902L364.187,182.356L364.526,181.747L364.56,181.106L364.339,180.448L364.592,180.214L364.919,180.027L365.388,179.891L366.011,179.876L367.759,180.494L373.81,185.604L374.553,185.988L375.236,186.067L375.873,185.785L380.608,180.432L381.676,179.989L382.852,179.978L387.623,181.914L389.72,183.608L393.068,187.922L394.703,189.331L395.499,189.69L396.261,189.775L396.975,189.558L397.627,189.01L398.101,188.092L398.351,186.873L398.724,181.39L399.068,180.471L399.679,179.977L402.5,179.009L403.147,178.956L403.777,179.069L404.397,179.394L406.689,181.848L407.932,182.693L416.315,184.179L417.109,184.018L417.729,183.51L418.147,182.557L418.325,181.404L418.282,180.339L418.051,179.335L414.3,170.693L414.161,170.032L414.127,169.35L414.897,165.672L414.964,164.622L414.916,163.58L414.728,162.568L414.396,161.609L413.898,160.726L412.549,158.99L412.056,157.676L411.736,156.119L411.58,152.759L411.722,151.201L412.001,149.884L412.403,148.933L412.598,147.957L412.345,146.594L408.709,139.208L407.151,134.228Z" style="fill:none;fill-rule:nonzero;stroke:black;stroke-width:0.5px;"/>
        <path d="M562.771,196.666L564.389,197.64L566.923,197.338L578.167,200.497L579.366,201.233L581.911,203.38L583.314,204.125L584.818,204.143L588.155,203.451L589.433,203.841L589.196,204.32L589.569,206.182L590.248,208.398L590.904,209.887L591.979,211.057L595.836,213.502L598.438,214.255L603.573,214.105L605.835,215.07L603.822,215.885L604.127,216.531L604.512,217.107L604.965,217.603L605.463,218.037L605.327,220.268L605.542,222.436L606.3,224.197L607.759,225.303L608.947,222.171L611.368,221.985L613.094,232.093L612.986,232.89L612.678,233.777L612.209,234.664L611.608,235.46L610.913,236.076L610.153,236.421L609.364,236.406L607.846,235.446L607.18,235.36L606.574,235.602L606.014,236.1L603.496,239.808L594.627,244.766L593.179,246.452L592.643,247.489L592.289,248.676L592.056,251.275L591.789,252.199L590.678,254.009L590.428,254.618L590.353,255.39L591.596,260.421L591.634,261.234L591.499,262L591.141,262.736L584.626,271.896L584.203,272.758L583.919,273.68L583.799,274.633L583.852,275.584L584.088,276.505L584.531,277.368L587.595,280.372L587.85,280.854L587.898,281.368L587.703,281.941L584.56,286.062L584.235,286.904L584.026,287.863L583.511,294.042L583.607,294.793L583.874,295.44L584.362,295.977L585.786,296.624L590.519,297.25L590.995,297.571L591.25,298.026L591.553,299.748L591.789,300.292L592.236,300.747L601.6,305.518L602.37,305.542L605.448,303.853L606.218,303.73L606.988,304.024L615.405,313.136L617.016,313.947L622.564,314.252L625.108,312.273L625.697,312.001L626.332,312.042L630.334,314.745L633.133,314.965L637.101,313.648L640.259,315.162L642.798,317.349L643.286,318.117L643.464,318.855L642.844,324.436L642.945,325.545L643.27,326.459L643.876,327.1L644.629,327.332L645.346,327.18L647.347,325.887L647.977,325.675L648.597,325.818L649.213,326.466L652.56,333.506L653.286,334.271L656.734,335.883L659.658,338.426L660.834,339.926L661.24,340.827L661.728,342.696L661.932,344.831L665.051,345.632L666.448,346.729L668.088,348.626L666.448,353.05L664.856,353.446L663.504,353.316L662.874,352.99L661.847,351.797L661.296,351.369L660.719,351.149L660.137,351.153L659.572,351.392L659.05,351.883L658.598,352.642L657.896,354.673L657.494,355.339L657.054,355.768L655.698,356.523L655.299,356.893L654.955,357.47L654.719,358.231L654.608,359.06L654.646,360.706L654.954,362.522L652.008,363.837L642.393,361.886L640.729,361.816L639.491,361.977L638.163,362.504L637.754,362.852L637.552,363.344L637.708,364.023L638.422,365.722L638.694,366.8L638.694,367.549L638.473,368.244L638.117,368.758L637.641,369.231L636.975,369.505L636.194,369.623L628.4,369.466L627.551,369.678L625.663,370.461L624.237,371.274L623.677,371.738L623.22,372.313L622.693,373.251L622.186,374.37L621.643,375.301L620.965,375.899L620.318,376.126L619.193,375.904L614.494,373.78L613.527,373.588L611.214,372.325L608.516,370.008L606.83,369.374L606.147,369.295L604.093,369.027L603.641,371.728L603.47,374.604L604.353,377.475L605.298,378.66L604.319,380.683L603.946,381.155L600.206,384.769L599.612,385.525L599.088,386.349L598.73,386.747L598.239,386.99L597.883,387.016L597.44,386.929L590.31,387.104L589.548,387.329L589.055,387.93L588.757,388.796L588.276,391.881L588,392.708L587.541,393.242L586.993,393.432L586.507,393.345L586.084,393.059L585.733,392.652L585.247,391.782L585.137,391.512L585.223,391.214L585.343,390.425L585.386,389.467L585.196,388.247L583.893,385.212L581.839,382.15L579.612,379.999L575.519,378.722L573.696,377.651L573.073,376.894L572.739,375.96L572.905,372.677L572.761,371.827L572.496,371.103L572.131,370.49L567.047,365.53L566.499,364.628L566.129,363.77L565.393,359.845L564.417,357.299L563.078,355.171L562.301,354.475L558.03,352.698L556.953,352.642L556.025,352.875L555.32,353.464L554.914,354.475L554.717,356.489L554.789,357.207L554.953,357.792L556.949,361.137L557.723,363.12L557.983,364.2L558.094,365.28L558.01,366.315L557.685,367.261L556.41,369.264L554.645,371.223L553.678,371.951L552.706,372.383L551.771,372.427L545.819,367.797L545.285,366.936L545.198,366.119L545.679,365.368L546.389,364.636L546.906,363.859L547.243,363.038L547.411,362.172L547.421,361.262L547.281,360.308L544.564,353.35L544.28,352.217L544.222,351.269L544.46,350.576L545.691,349.968L545.982,349.609L545.977,349.15L545.717,348.609L541.047,343.954L539.561,341.433L539.147,340.25L539.056,339.267L539.361,338.596L540.138,338.347L543.615,339.182L544.281,339L544.873,338.351L545.388,337.078L545.828,335.026L546.92,333.883L547.581,331.335L547.886,327.946L548.141,326.741L551.517,323.235L550.704,317.491L549.617,315.847L547.852,315.174L547.292,314.569L546.886,313.62L546.597,310.771L542.062,301.543L540.314,298.901L539.686,297.665L539.46,296.231L539.631,294.892L541.401,291.076L541.247,286.995L541.35,282.412L541.247,281.383L540.434,278.133L539.991,274.336L539.787,273.5L539.482,272.718L538.715,271.407L538.645,270.597L539.003,269.682L540.874,268.599L541.28,268.442L541.944,267.993L544.183,265.578L547.547,263.165L548.04,262.693L548.345,262.086L548.513,261.416L548.429,260.266L548.294,259.663L547.597,257.822L547.751,256.033L550.5,246.767L554.646,236.169L555.872,235.855L556.901,234.936L558.722,232.4L560.034,231.49L560.995,231.455L563.02,232.18L564.004,232.109L564.275,231.481L564.252,229.412L564.557,228.943L566.163,228.97L566.819,229.421L567.328,230.455L568.493,232.205L569.817,232.709L570.518,231.251L570.303,228.997L568.878,227.105L568.72,222.947L567.566,219.876L565.575,217.681L562.906,216.114L560.859,213.997L559.784,210.675L558.97,207.023L557.726,203.884L554.219,198.694L554.208,196.298L557.183,194.487L559.683,194.807L562.771,196.666Z" style="fill:none;fill-rule:nonzero;stroke:black;stroke-width:0.5px;"/>
        <path d="M523.396,246.813L527.163,250.297L531.756,252.686L536.201,252.36L539.572,247.748L542.004,245.984L543.339,244.087L544.527,241.774L546.495,238.79L548.95,236.679L551.122,236.361L553.317,236.511L554.647,236.171L550.501,246.769L547.752,256.035L547.598,257.824L548.295,259.665L548.43,260.268L548.514,261.418L548.346,262.088L548.041,262.695L547.548,263.167L544.184,265.58L541.945,267.995L541.281,268.444L540.875,268.601L539.004,269.684L538.646,270.599L538.716,271.409L539.483,272.72L539.788,273.502L539.992,274.338L540.435,278.135L541.248,281.385L541.351,282.414L541.248,286.997L541.402,291.078L539.632,294.894L539.461,296.233L539.687,297.667L540.315,298.903L542.063,301.545L546.598,310.773L546.887,313.622L547.293,314.571L547.853,315.176L549.618,315.849L550.705,317.493L551.518,323.237L548.142,326.743L547.887,327.948L547.582,331.337L546.921,333.885L545.829,335.028L544.641,335.29L539.156,332.506L536.595,331.608L533.863,331.354L530.174,331.621L529.174,331.502L527.81,330.839L526.98,330.624L521.136,330.646L520.186,331.043L519.626,331.782L519.491,333.2L519.287,334.304L518.931,334.994L517.964,335.796L504.99,337.061L502.354,336.825L500.216,336.166L495.731,333.264L491.878,331.855L490.707,331.016L489.937,329.902L489.242,328.645L488.258,327.414L486.832,326.209L482.72,323.472L479.497,321.846L477.285,321.179L474.469,321.047L472.11,321.279L470.917,321.008L470.102,320.422L469.746,319.675L469.424,318.809L468.645,318.017L467.423,317.344L464.905,316.807L463.277,316.229L461.8,315.481L460.266,314.432L459.521,314.125L458.86,314.116L458.401,314.536L458.146,314.973L457.622,316.338L457.23,317.004L456.723,317.389L455.501,317.833L454.974,318.127L453.288,320.048L452.22,320.721L451.2,320.734L449.995,320.398L448.504,319.751L447.552,319.838L446.768,320.236L443.998,319.494L442.274,315.991L440.776,313.965L438.992,312.538L436.159,311.154L435.738,310.733L435.471,310.149L435.235,308.44L434.841,307.666L434.254,307.011L432.734,306.058L429.8,305.358L424.808,301.446L422.894,300.917L414.552,301.591L413.915,301.25L412.756,299.959L409.935,295.346L407.828,292.853L403.088,289.704L403.242,288.344L403.682,286.591L404.226,284.98L404.481,283.989L404.604,283.057L404.674,279.658L404.741,278.924L404.876,278.427L405.165,277.816L405.403,276.964L405.251,276.125L404.227,274.903L403.429,274.243L402.667,273.848L401.224,273.435L400.341,272.801L396.349,268.949L395.584,268.448L391.864,267.234L389.3,265.571L388.504,264.761L387.249,262.745L387.78,261.916L389.805,260.931L392.032,260.367L393.006,260.41L393.21,258.657L393.261,258.058L393.227,257.468L392.818,255.538L392.693,254.678L392.693,253.78L392.818,253.21L393.073,252.708L394.872,250.957L400.906,253.234L401.748,253.168L408.414,246.891L410.53,245.829L412.194,245.698L416.465,247.814L418.076,247.835L421.426,246.835L421.996,247.024L426.447,250.073L427.291,250.262L427.993,250.033L428.524,249.362L429.969,244.726L430.474,243.641L431.164,242.812L436.601,241.213L437.173,241.451L437.594,242.02L438.606,246.425L439.373,248.212L439.803,248.844L440.255,249.249L440.714,249.393L441.337,249.089L448.306,242.223L449.333,241.709L453.9,241.628L456.935,242.54L457.541,242.99L457.863,243.636L457.976,244.552L458.005,248.018L458.234,249.113L458.729,250.028L459.592,250.673L465.883,251.933L466.544,252.439L467.357,254.159L468.444,255.772L469.743,256.965L470.984,257.621L471.941,257.846L472.362,258.208L474.094,260.405L474.611,260.768L475.874,261.069L480.116,264.738L481.706,263.54L483.404,262.851L493.185,261.932L494.686,261.142L495.335,260.528L495.878,259.755L496.287,258.817L496.797,256.678L497.256,255.93L497.881,255.392L509.203,249.99L509.843,249.171L510.076,248.112L510.242,245.792L510.466,244.781L510.795,243.952L511.24,243.361L511.81,243.07L523.396,246.813Z" style="fill:none;fill-rule:nonzero;stroke:black;stroke-width:0.5px;"/>
        <path d="M611.366,221.984L613.753,223.922L614.771,227.106L615.325,227.477L615.913,227.61L616.49,227.486L617.056,227.106L620.268,223.196L625.483,222.718L635.268,224.452L637.802,223.788L639.68,222.248L642.927,217.743L643.538,216.344L643.821,215.175L644.534,214.714L646.389,215.405L647,215.981L649.013,218.708L649.284,219.097L649.341,219.557L649.262,220.07L649.013,220.61L647.825,223.813L647.61,225.379L647.859,227.104L649.013,228.254L650.721,231.419L649.692,234.008L647.475,235.934L642.815,238.734L639.897,239.882L634.615,240.085L633.416,240.694L632.613,242.415L632.839,243.66L638.156,250.409L639.864,251.185L640.972,250.982L641.9,250.444L643.065,250.171L644.502,250.559L647.477,252.04L649.015,252.366L649.06,252.533L649.083,252.692L649.06,252.824L649.015,252.947L647.997,253.82L647.646,254.754L647.985,255.732L649.014,256.763L650.224,258.217L650.971,260.102L651.582,262.207L652.442,264.241L653.675,265.949L660.767,273.023L664.749,273.867L668.731,272.653L671.955,269.768L673.946,269.249L678.335,269.117L681.898,268.052L682.452,267.304L682.26,265.605L681.491,264.425L680.552,264.399L679.681,264.672L679.104,264.426L678.618,260.569L680.438,261.025L681.989,261.414L688.38,265.605L687.667,268.747L689.092,270.401L696.083,271.729L697.746,272.652L701.196,275.633L702.485,276.213L705.053,276.749L706.354,277.716L706.818,278.648L707.576,281.284L708.187,282.435L710.359,284.218L711.943,283.902L715.008,281.223L714.884,280.933L714.737,280.74L714.545,280.643L714.307,280.643L718.719,280.098L722.95,281.609L731.083,286.114L733.628,286.105L737.938,283.339L739.555,284.323L740.234,287.405L739.963,290.012L740.438,292.092L743.345,293.662L740.336,297.161L740.381,301.71L742.281,306.861L744.86,312.184L745.957,317.11L746.647,318.378L748.106,319.401L751.477,319.698L753.038,320.17L754.463,321.342L756.612,323.886L757.992,324.716L759.587,324.585L761.295,323.842L763.003,323.545L764.643,324.769L765.096,326.088L765.831,331.905L766.34,333.529L767.63,336.479L768.116,338.006L769.688,345.201L770.005,348.687L769.541,351.501L765.062,351.623L763.015,352.407L758.524,356.552L755.459,356.726L752.292,355.751L748.706,353.94L747.948,353.783L747.19,353.94L744.068,355.594L739.227,354.889L736.976,356.317L736.41,357.701L736.139,360.834L735.585,362.313L734.68,363.235L731.083,365.174L726.423,370.894L723.968,372.51L720.778,371.789L720.709,373.828L719.501,373.799L718.876,373.539L718.27,373.079L717.741,372.37L717.347,371.356L716.476,366.546L716.149,365.472L715.673,364.523L714.995,363.739L713.114,362.544L712.378,361.712L710.098,356.817L709.55,356.208L707.669,355.488L699.356,355.621L698.615,355.347L695.318,353L694.291,352.578L677.224,354.27L676.303,354.076L675.536,353.674L674.93,353.059L674.5,352.22L674.046,350.135L673.741,349.422L673.359,348.963L672.921,348.704L668.097,348.624L666.457,346.727L665.06,345.63L661.941,344.829L661.737,342.694L661.249,340.825L660.843,339.924L659.667,338.424L656.743,335.881L653.295,334.269L652.569,333.504L649.222,326.464L648.606,325.816L647.986,325.673L647.356,325.885L645.355,327.178L644.638,327.33L643.885,327.098L643.279,326.457L642.954,325.543L642.853,324.434L643.473,318.853L643.295,318.115L642.807,317.347L640.268,315.16L637.11,313.646L633.142,314.963L630.343,314.743L626.341,312.04L625.706,311.999L625.117,312.271L622.573,314.25L617.025,313.945L615.414,313.134L606.997,304.022L606.227,303.728L605.457,303.851L602.379,305.54L601.609,305.516L592.245,300.745L591.798,300.29L591.562,299.746L591.259,298.024L591.004,297.569L590.528,297.248L585.795,296.622L584.371,295.975L583.883,295.438L583.616,294.791L583.52,294.04L584.035,287.861L584.244,286.902L584.569,286.06L587.712,281.939L587.907,281.366L587.859,280.852L587.604,280.37L584.54,277.366L584.097,276.503L583.861,275.582L583.808,274.631L583.928,273.678L584.212,272.756L584.635,271.894L591.15,262.734L591.508,261.998L591.643,261.232L591.605,260.419L590.362,255.388L590.437,254.616L590.687,254.007L591.798,252.197L592.065,251.273L592.298,248.674L592.652,247.487L593.188,246.45L594.636,244.764L603.505,239.806L606.023,236.098L606.583,235.6L607.189,235.358L607.855,235.444L609.373,236.404L610.162,236.419L610.922,236.074L611.617,235.458L612.218,234.662L612.687,233.775L612.995,232.888L613.103,232.091L611.366,221.984Z" style="fill:none;fill-rule:nonzero;stroke:black;stroke-width:0.5px;"/>
        <path d="M562.884,502.844L559.106,498.438L557.59,487.469L555,483.818L553.201,483.681L548.993,485.181L546.889,485.438L544.876,484.684L540.917,482.052L539.243,481.478L535.08,481.65L533.338,481.341L531.901,480.329L531.109,478.365L530.702,475.98L529.842,473.98L527.749,473.13L525.724,472.89L519.186,470.984L517.32,469.782L516.313,469.438L515.306,469.575L513.327,470.417L512.196,470.468L509.04,470.004L507.14,471.275L501.586,480.817L500.387,481.94L498.668,482.446L498.057,482.249L496.609,481.066L494.335,481.409L494.211,481.521L478.906,479.248L468.793,479.857L462.99,477.335L451.984,469.301L451.826,468.477L451.826,467.326L451.249,466.613L449.394,467.094L449.281,465.341L448.467,464.594L447.234,464.542L445.854,464.869L446.974,463.382L446.058,463.442L445.243,463.072L444.044,462.195L441.951,462.04L441.205,461.722L440.662,460.871L440.221,458.825L439.587,458.343L436.239,458.352L435.289,458.584L431.398,460.647L429.554,461.231L427.031,461.231L424.576,460.647L416.081,455.84L409.564,453.3L409.572,453.259L409.844,451.684L410.301,450.685L410.707,449.351L412.376,445.132L412.903,443.389L412.903,442.704L413.211,441.944L413.711,441.482L414.358,441.313L415.104,441.439L415.902,441.855L416.703,442.557L418.769,445.833L419.409,446.196L420.029,446.062L420.601,445.591L421.486,444.282L421.832,443.559L422.59,442.636L423.737,441.727L424.43,441.449L425.173,441.405L425.938,441.684L429.223,444.546L429.86,444.76L430.538,444.667L438.455,437.462L441.533,436.054L445.325,436.421L446.035,436.054L446.574,435.335L447.13,432.992L447.556,432.202L448.09,431.734L448.667,431.518L449.699,431.536L450.154,431.674L452.98,428.157L453.79,427.711L454.514,427.779L455.079,428.542L455.56,429.547L456.087,430.253L456.659,430.71L457.97,431.079L461.25,430.941L461.928,430.666L463.876,429.199L464.364,429.07L471.913,430.314L473.048,429.914L473.959,429.169L476.222,425.787L476.669,425.381L484.369,422.897L486.757,419.963L487.517,418.323L487.695,417.517L487.7,416.74L487.503,416.009L486.623,413.859L486.476,413.107L486.486,412.326L486.695,411.51L487.154,410.648L488.686,408.796L489.174,407.88L489.405,407.008L489.4,406.202L489.184,405.485L488.78,404.878L488.21,404.403L486.846,403.708L486.394,403.091L486.125,402.283L486.014,401.333L486.173,399.223L486.68,397.172L487.074,396.393L487.603,395.886L489.912,394.961L490.249,394.6L490.374,394.027L490.304,393.399L490.124,392.887L489.352,391.472L489.162,390.844L489.078,390.038L489.143,388.995L489.386,387.847L489.79,386.772L490.94,384.904L492.32,383.508L501.867,377.662L502.302,376.842L502.42,375.83L502.285,374.67L500.224,368.204L500.005,366.993L499.76,359.317L499.125,357.063L499.168,356.278L499.469,355.717L499.969,355.341L503.244,354.752L503.679,354.224L503.992,353.445L504.175,352.497L504.223,351.458L504.132,350.412L503.894,349.441L503.509,348.624L500.498,345.623L500.217,344.889L500.236,344.007L501.597,340.642L502.109,338.689L502.352,336.819L504.988,337.055L517.962,335.79L518.929,334.988L519.285,334.298L519.489,333.194L519.624,331.776L520.184,331.037L521.134,330.64L526.978,330.618L527.808,330.833L529.172,331.496L530.172,331.615L533.861,331.348L536.593,331.602L539.154,332.5L544.639,335.284L545.827,335.022L545.387,337.074L544.872,338.347L544.28,338.996L543.614,339.178L540.137,338.343L539.36,338.592L539.055,339.263L539.146,340.246L539.56,341.429L541.046,343.95L545.716,348.605L545.976,349.146L545.981,349.605L545.69,349.964L544.459,350.572L544.221,351.265L544.279,352.213L544.563,353.346L547.28,360.304L547.42,361.258L547.41,362.168L547.242,363.034L546.905,363.855L546.388,364.632L545.678,365.364L545.197,366.115L545.284,366.932L545.818,367.793L551.77,372.423L552.705,372.379L553.677,371.947L554.644,371.219L556.409,369.26L557.684,367.257L558.009,366.311L558.093,365.276L557.982,364.196L557.722,363.116L556.948,361.133L554.952,357.788L554.788,357.203L554.716,356.485L554.913,354.471L555.319,353.46L556.024,352.871L556.952,352.638L558.029,352.694L562.3,354.471L563.077,355.167L564.416,357.295L565.392,359.841L566.128,363.766L566.498,364.624L567.046,365.526L572.13,370.486L572.495,371.099L572.76,371.823L572.904,372.673L572.738,375.956L573.072,376.89L573.695,377.647L575.518,378.718L579.611,379.995L581.838,382.146L583.892,385.208L585.195,388.243L585.385,389.463L585.342,390.421L585.222,391.21L585.136,391.508L585.03,391.877L583.231,395.123L582.974,396.208L583.073,397.613L584.04,400.898L585.526,404.005L586.926,405.963L589.797,407.67L590.259,408.148L590.641,408.814L590.927,409.73L590.994,410.705L590.773,411.518L590.321,412.187L588.955,413.165L585.99,414.268L585.458,414.782L582.623,418.846L580.954,420.352L580.754,421.138L580.995,421.924L581.577,422.666L582.404,423.32L584.407,424.187L586.309,424.213L591.643,422.377L592.465,422.432L593.085,422.854L593.388,423.687L593.46,424.818L593.171,430.004L593.387,430.888L593.827,431.53L594.426,432.062L598.928,434.174L605.7,435.582L606.222,435.938L606.638,436.587L607.201,438.339L607.547,440.743L611.424,442.392L613.382,443.974L614.565,445.789L615.272,446.208L616.08,446.298L616.936,446.135L620.413,444.245L623.64,444.681L626.156,445.692L626.57,446.106L627.287,447.307L627.831,448.859L628.172,450.587L628.504,451.324L629.206,451.831L635.136,453.596L636.175,454.333L637.026,455.386L637.743,456.71L638.791,459.657L639.603,463.414L627.46,468.206L623.456,467.579L620.108,464.031L618.513,463.258L615.911,464.023L613.904,465.343L611.771,466.746L609.871,467.107L597.383,460.757L592.123,459.381L587.225,460.43L581.343,464.727L580.348,466.274L579.703,469.409L578.131,471.41L574.364,474.68L571.672,479.279L566.141,495.273L564.885,497.58L563.154,499.698L562.884,502.844Z" style="fill:none;fill-rule:nonzero;stroke:black;stroke-width:0.5px;"/>
        <path d="M717.92,381.802L713.872,384.982L699.144,390.74L695.92,393.8L693.284,398.097L691.237,403.206L689.846,408.701L689.45,413.189L689.469,414.196L689.609,421.667L688.885,425.337L686.611,429.195L683.387,432.206L679.756,433.879L673.885,433.422L671.238,433.836L668.942,435.319L667.494,438.233L666.815,440.706L665.967,445.866L665.073,448.148L663.06,450.119L660.967,450.24L658.659,449.844L655.967,450.309L654.202,451.781L650.424,458.302L648.49,459.91L639.604,463.419L638.792,459.662L637.744,456.715L637.027,455.391L636.176,454.338L635.137,453.601L629.207,451.836L628.505,451.329L628.173,450.592L627.832,448.864L627.288,447.312L626.571,446.111L626.157,445.697L623.641,444.686L620.414,444.25L616.937,446.14L616.081,446.303L615.273,446.213L614.566,445.794L613.383,443.979L611.425,442.397L607.548,440.748L607.202,438.344L606.639,436.592L606.223,435.943L605.701,435.587L598.929,434.179L594.427,432.067L593.828,431.535L593.388,430.893L593.172,430.009L593.461,424.823L593.389,423.692L593.086,422.859L592.466,422.437L591.644,422.382L586.31,424.218L584.408,424.192L582.405,423.325L581.578,422.671L580.996,421.929L580.755,421.143L580.955,420.357L582.624,418.851L585.459,414.787L585.991,414.273L588.956,413.17L590.322,412.192L590.774,411.523L590.995,410.71L590.928,409.735L590.642,408.819L590.26,408.153L589.798,407.675L586.927,405.968L585.527,404.01L584.041,400.903L583.074,397.618L582.975,396.213L583.232,395.128L585.031,391.882L585.137,391.513L585.247,391.783L585.733,392.653L586.084,393.06L586.507,393.346L586.993,393.433L587.541,393.243L588,392.709L588.277,391.887L588.758,388.802L589.056,387.936L589.549,387.335L590.311,387.11L597.441,386.935L597.884,387.022L598.24,386.996L598.731,386.753L599.089,386.355L599.613,385.531L600.207,384.775L603.947,381.161L604.32,380.689L605.299,378.666L604.354,377.481L603.471,374.61L603.642,371.734L604.094,369.033L606.148,369.301L606.831,369.38L608.517,370.014L611.215,372.331L613.528,373.594L614.495,373.786L619.194,375.91L620.319,376.132L620.966,375.905L621.644,375.307L622.187,374.376L622.694,373.257L623.221,372.319L623.678,371.744L624.238,371.28L625.664,370.467L627.552,369.684L628.401,369.472L636.195,369.629L636.976,369.511L637.642,369.237L638.118,368.764L638.474,368.25L638.695,367.555L638.695,366.806L638.423,365.728L637.709,364.029L637.553,363.35L637.755,362.858L638.164,362.51L639.492,361.983L640.73,361.822L642.394,361.892L652.009,363.843L654.955,362.528L654.647,360.712L654.609,359.066L654.72,358.237L654.956,357.476L655.3,356.899L655.699,356.529L657.055,355.774L657.495,355.345L657.897,354.679L658.599,352.648L659.051,351.889L659.573,351.398L660.138,351.159L660.72,351.155L661.297,351.375L661.848,351.803L662.875,352.996L663.505,353.322L664.857,353.452L666.449,353.056L668.089,348.632L672.913,348.712L673.351,348.971L673.733,349.43L674.038,350.143L674.492,352.228L674.922,353.067L675.528,353.682L676.295,354.084L677.216,354.278L694.283,352.586L695.31,353.008L698.607,355.355L699.348,355.629L707.661,355.496L709.542,356.216L710.09,356.825L712.37,361.72L713.106,362.552L714.987,363.747L715.665,364.531L716.141,365.48L716.468,366.554L717.339,371.364L717.733,372.378L718.262,373.087L718.868,373.547L719.493,373.807L720.701,373.836L720.499,379.779L717.92,381.802Z" style="fill:none;fill-rule:nonzero;stroke:black;stroke-width:0.5px;"/>
        <path d="M502.352,336.823L502.109,338.693L501.597,340.646L500.236,344.011L500.217,344.893L500.498,345.627L503.509,348.628L503.894,349.445L504.132,350.416L504.223,351.462L504.175,352.501L503.992,353.449L503.679,354.228L503.244,354.756L499.969,355.345L499.469,355.721L499.168,356.282L499.125,357.067L499.76,359.321L500.005,366.997L500.224,368.208L502.285,374.674L502.42,375.834L502.302,376.846L501.867,377.666L492.32,383.512L490.94,384.908L489.79,386.776L489.386,387.851L489.143,388.999L489.078,390.042L489.162,390.848L489.352,391.476L490.124,392.891L490.304,393.403L490.374,394.031L490.249,394.604L489.912,394.965L487.603,395.89L487.074,396.397L486.68,397.176L486.173,399.227L486.014,401.337L486.125,402.287L486.394,403.095L486.846,403.712L488.21,404.407L488.78,404.882L489.184,405.489L489.4,406.206L489.405,407.012L489.174,407.884L488.686,408.8L487.154,410.652L486.695,411.514L486.486,412.33L486.476,413.111L486.623,413.863L487.503,416.013L487.7,416.744L487.695,417.521L487.517,418.327L486.757,419.967L484.369,422.901L476.669,425.385L476.222,425.791L473.959,429.173L473.048,429.918L471.913,430.318L464.364,429.074L463.876,429.203L461.928,430.67L461.25,430.945L457.97,431.083L456.659,430.714L456.087,430.257L455.56,429.551L455.079,428.546L454.514,427.783L453.79,427.715L452.98,428.161L450.154,431.678L449.699,431.54L448.667,431.522L448.09,431.738L447.556,432.206L447.13,432.996L446.574,435.339L446.035,436.058L445.325,436.425L441.533,436.058L438.455,437.466L430.538,444.671L429.86,444.764L429.223,444.55L425.938,441.688L425.173,441.409L424.43,441.453L423.737,441.731L422.59,442.64L421.832,443.563L421.486,444.286L420.601,445.595L420.029,446.066L419.409,446.2L418.769,445.837L416.703,442.561L415.902,441.859L415.104,441.443L414.358,441.317L413.711,441.486L413.211,441.948L412.903,442.708L412.802,442.118L412.259,441.261L411.766,440.787L411.242,440.452L409.963,440.175L408.231,440.038L407.469,439.866L406.791,439.395L406.382,438.651L405.908,437.52L405.569,437.111L405.194,436.955L404.85,436.955L404.646,436.882L404.499,436.46L404.41,435.778L404.646,434.442L404.85,433.795L405.314,433.131L408.875,428.913L409.419,427.799L409.657,426.984L409.775,425.787L409.895,425.053L410.15,424.385L410.439,424.101L411.014,423.993L413.431,423.837L414.176,423.652L414.736,423.355L415.195,423.001L415.481,422.604L415.5,422.154L415.296,421.557L414.601,420.633L409.402,415.491L408.996,415.215L408.623,415.189L408.164,415.292L403.917,416.995L402.356,417.107L397.193,416.161L396.7,416.183L394.868,416.512L394.358,416.407L393.952,416.174L388.755,411.221L388.211,410.502L387.855,409.369L387.583,407.881L387.362,405.157L386.922,403.742L386.311,402.872L385.371,402.5L380.044,401.876L378.798,401.53L378.341,401.226L372.589,398.209L371.908,398.169L371.3,398.357L370.749,398.751L368.835,401.671L368.368,402L367.892,402.02L363.496,399.148L360.61,395.295L357.464,393.195L355.016,390.796L353.253,389.771L352.31,389.679L351.355,390.015L349.474,391.758L348.498,392.077L347.495,391.939L345.42,390.673L341.313,386.827L340.741,385.955L340.428,385.11L340.313,384.28L340.568,380.817L340.496,380.007L340.292,379.42L339.984,378.979L338.173,377.216L337.694,376.407L337.413,375.377L337.437,374.192L339.748,365.057L339.837,361.962L339.544,359.219L337.914,353.33L338.191,352.663L338.821,352.233L342.69,351.107L343.443,350.529L343.832,349.779L343.839,348.984L343.565,348.189L343.113,347.437L341.555,345.767L342.438,345.391L343.717,344.24L344.191,343.417L344.496,342.637L344.667,342.07L345.023,341.434L345.328,341.102L347.432,339.982L347.737,339.62L347.838,339.156L347.602,338.171L347.532,337.769L347.583,337.324L347.771,336.94L348.076,336.652L348.586,336.522L349.49,336.587L353.799,338.501L355.004,338.562L356.502,338.371L359.082,337.612L362.261,337.69L364.074,338.441L367.198,337.951L375.776,333.806L376.048,331.762L375.759,329.915L375.201,328.444L374.641,327.523L374.023,326.819L369.086,323.115L368.579,322.424L368.391,321.69L368.713,320.471L369.24,319.54L371.734,316.662L372.65,315.351L372.922,314.672L373.09,313.995L373.227,313.258L373.465,312.542L373.821,311.947L374.285,311.383L374.742,310.966L374.879,310.895L375.624,310.659L375.963,310.678L376.218,310.765L376.624,311.08L377.574,311.649L378.168,311.772L378.678,311.776L379.068,311.672L383.553,309.005L387.36,307.505L391.263,304.023L391.924,303.647L392.338,303.638L392.932,303.804L394.731,304.059L396.205,303.791L397.138,303.337L397.766,302.763L398.175,302.131L398.435,301.421L398.853,298.704L399.029,297.994L399.25,297.31L399.435,296.907L399.774,296.314L400.166,295.736L400.979,294.871L401.335,294.627L402.473,294.215L402.882,293.754L403.033,292.898L402.999,291.107L403.083,289.704L407.823,292.853L409.93,295.346L412.751,299.959L413.91,301.25L414.547,301.591L422.889,300.917L424.803,301.446L429.795,305.358L432.729,306.058L434.249,307.011L434.836,307.666L435.23,308.44L435.466,310.149L435.733,310.733L436.154,311.154L438.987,312.538L440.771,313.965L442.269,315.991L443.993,319.494L446.763,320.236L447.547,319.838L448.499,319.751L449.99,320.398L451.195,320.734L452.215,320.721L453.283,320.048L454.969,318.127L455.496,317.833L456.718,317.389L457.225,317.004L457.617,316.338L458.141,314.973L458.396,314.536L458.855,314.116L459.516,314.125L460.261,314.432L461.795,315.481L463.272,316.229L464.9,316.807L467.418,317.344L468.64,318.017L469.419,318.809L469.741,319.675L470.097,320.422L470.912,321.008L472.105,321.279L474.464,321.047L477.28,321.179L479.492,321.846L482.715,323.472L486.827,326.209L488.253,327.414L489.237,328.645L489.932,329.902L490.702,331.016L491.873,331.855L495.726,333.264L500.211,336.166L502.352,336.823Z" style="fill:none;fill-rule:nonzero;stroke:black;stroke-width:0.5px;"/>
        <path d="M403.086,289.699L403.002,291.102L403.036,292.893L402.885,293.749L402.476,294.21L401.338,294.622L400.982,294.866L400.169,295.731L399.777,296.309L399.438,296.902L399.253,297.305L399.032,297.989L398.856,298.699L398.438,301.416L398.178,302.126L397.769,302.758L397.141,303.332L396.208,303.786L394.734,304.054L392.935,303.799L392.341,303.633L391.927,303.642L391.266,304.018L387.363,307.5L383.556,309L379.071,311.667L378.681,311.771L378.171,311.767L377.577,311.644L376.627,311.075L376.221,310.76L375.966,310.673L375.627,310.654L374.882,310.89L374.745,310.961L374.288,311.378L373.824,311.942L373.468,312.537L373.23,313.253L373.093,313.99L372.925,314.667L372.653,315.346L371.737,316.657L369.243,319.535L368.716,320.466L368.394,321.685L368.582,322.419L369.089,323.11L374.026,326.814L374.644,327.518L375.204,328.439L375.762,329.91L376.051,331.757L375.779,333.801L367.201,337.946L364.077,338.436L362.264,337.685L359.085,337.607L356.505,338.366L355.007,338.557L353.802,338.496L349.493,336.582L348.589,336.517L348.079,336.647L347.774,336.935L347.586,337.319L347.535,337.764L347.605,338.166L347.841,339.151L347.74,339.615L347.435,339.977L345.331,341.097L345.026,341.429L344.67,342.065L344.499,342.632L344.194,343.412L343.72,344.235L342.441,345.386L341.558,345.762L340.846,345.866L340.336,345.666L339.845,345.353L339.335,344.899L338.775,344.28L338.318,343.59L337.979,342.837L337.64,341.767L337.378,341.218L336.649,340.747L335.326,340.276L333.222,340.66L332.118,340.556L331.558,340.206L331.507,339.116L331.44,338.663L331.067,338.025L330.466,337.511L327.227,336.517L326.65,336.185L326.294,335.818L325.512,334.746L324.913,334.108L324.49,334.013L323.963,334.197L322.621,335.357L322.282,335.758L321.825,336.439L321.147,337.827L321.044,338.307L320.977,338.83L320.705,343.252L320.01,344.297L318.476,345.515L314.931,346.277L314.183,346.625L312.584,348.281L309.97,349.928L308.782,350.276L307.613,350.433L305.011,350.014L304.823,349.823L304.772,349.395L304.806,348.925L304.907,348.419L303.568,348.058L291.409,348.551L289.355,348.28L287.535,347.268L286.075,346.903L284.716,346.964L283.817,347.164L278.687,350.052L277.569,350.184L276.737,350.11L276.244,349.936L275.922,349.766L275.65,349.557L275.407,349.322L274.88,348.551L274.661,348.158L274.202,347.613L273.812,347.339L273.285,347.139L272.862,347.069L272.557,346.947L272.319,346.695L272.098,346.254L271.692,345.151L271.336,344.777L270.759,344.468L269.453,344.129L267.7,344.116L266.392,344.364L265.868,344.533L265.409,344.848L263.435,346.835L261.263,347.724L254.878,348.565L251.975,348.456L250.561,347.96L248.526,347.799L247.881,347.586L246.539,346.522L245.438,345.92L244.601,345.826L243.819,345.965L242.597,346.626L241.885,347.219L241.358,348.369L240.764,350.312L240.492,350.634L240.136,350.914L234.853,352.568L234.023,352.996L233.429,353.448L231.471,354.468L230.333,354.598L229.417,354.489L227.433,353.345L226.815,352.891L226.204,352.665L225.475,352.5L223.183,352.417L222.572,352.211L221.3,351.324L220.785,351.192L220.157,351.27L213.806,355.006L213.789,353.47L213.926,352.883L214.135,352.413L214.609,350.941L214.931,349.302L214.931,348.318L214.688,347.142L213.943,346.001L212.89,344.709L212.517,343.934L212.245,342.922L212.094,341.187L212.195,337.009L211.991,336.066L211.568,335.229L210.601,334.09L209.87,333.57L209.326,333.299L208.836,333.134L208.288,332.757L207.846,332.146L207.591,330.845L207.694,330.243L207.982,329.807L208.627,329.248L208.819,328.802L208.752,328.386L208.48,327.946L207.066,327.081L207.049,326.854L207.71,326.295L208.593,325.779L208.768,325.285L208.626,324.678L206.962,323.175L206.522,322.476L206.811,321.677L207.405,320.876L208.699,319.621L209.937,318.838L211.313,318.262L214.519,317.463L215.358,317.043L216.204,316.254L218.919,313.205L219.275,312.461L219.258,311.946L218.986,311.367L218.207,310.913L217.137,310.483L216.865,310.239L216.713,309.8L216.747,308.795L216.935,307.937L218.02,304.187L218.087,303.334L217.969,302.611L217.714,301.603L217.647,301.007L217.647,300.534L219.023,297.071L219.141,296.607L219.242,295.949L219.276,295.186L219.209,293.72L219.243,292.987L219.481,292.422L219.719,292.172L220.041,292.088L221.099,291.984L221.693,291.803L222.15,291.588L222.422,291.413L222.54,291.111L222.593,290.659L222.473,289.833L221.405,286.199L221.217,285.338L221.183,284.617L221.25,283.879L221.421,283.281L220.962,282.469L219.991,281.438L214.251,278.503L214.013,277.733L213.909,277.07L213.452,276.446L212.757,275.997L209.109,274.881L208.491,274.537L207.746,273.896L204.879,270.73L203.927,270.096L202.741,269.546L200.68,268.966L199.595,268.886L198.712,268.961L197.235,269.309L195.708,269.455L193.75,269.208L192.783,268.6L187.468,263.46L185.566,262.535L183.762,262.114L182.319,261.551L181.691,261.532L181.131,261.708L178.909,262.951L177.721,263.249L177.173,263.277L176.562,263.196L176.018,262.968L175.612,262.44L175.595,261.708L176.054,260.483L176.494,259.586L176.816,258.749L176.867,257.833L176.816,257.093L175.51,253.681L176.645,252.05L178.025,251.336L179.723,250.869L180.808,250.312L183.614,247.49L184.886,246.625L185.939,245.302L186.99,242.773L188.45,240.448L189.061,239.759L190.338,239.025L196.742,236.362L201.424,233.3L202.448,232.223L202.821,231.904L203.617,231.417L204.55,231.109L205.755,231.126L206.435,231.303L207.113,231.639L207.57,231.789L208.114,231.789L210.038,231.276L220.468,225.83L221.401,225.749L222.284,226.131L222.996,226.661L223.828,226.971L224.59,226.847L225.812,225.879L226.44,225.228L227.125,224.289L227.786,223.537L234.272,219.458L235.308,219.042L236.785,219.14L237.701,219.052L238.547,218.706L239.199,217.697L239.42,217.059L239.454,216.485L239.312,215.395L239.334,214.668L239.454,213.721L239.709,212.977L240.166,212.242L241.015,211.843L242.338,211.532L246.91,211.381L249.589,211.908L252.157,212.842L254.362,213.117L262.988,211.638L266.557,212.975L267.117,212.841L267.913,212.451L270.277,210.471L271.193,209.874L272.042,209.625L275.13,209.369L277.054,209.501L277.903,209.32L278.766,208.845L279.632,207.543L280.007,206.682L280.243,205.964L280.431,205.566L280.958,204.776L281.059,204.359L281.059,203.72L280.905,203.145L280.499,201.925L280.364,201.37L280.381,200.783L280.499,199.683L280.448,199.01L280.277,198.353L279.77,196.834L279.616,196.141L279.719,195.458L280.125,195.12L281.008,195.28L282.456,195.943L283.033,196.098L283.61,196.151L284.255,195.875L285.205,195.316L288.394,192.647L289.284,192.173L289.979,191.658L290.147,191.316L290.318,190.885L290.691,189.552L290.828,188.152L290.828,187.1L290.946,186.314L291.1,185.723L291.422,185.056L291.828,184.444L292.574,183.919L293.762,183.573L298.639,183.456L300.714,183.794L302.393,183.679L303.158,183.794L303.649,184.044L303.87,184.465L304.074,184.968L304.158,185.386L304.225,185.879L304.276,186.435L304.413,186.924L304.668,187.325L304.973,187.546L305.923,187.674L307.828,187.51L317.642,184.946L322.076,181.976L326.085,180.068L327.052,179.33L328.341,178.049L329.173,177.47L330.993,176.482L331.909,175.663L332.691,174.692L333.845,172.387L334.285,171.715L334.982,170.928L337.238,169.012L337.871,168.224L339.146,166.152L339.552,165.654L340.079,165.404L340.707,165.44L341.775,165.885L342.674,165.912L343.917,165.342L344.715,165.137L345.48,165.253L346.531,166.136L347.43,166.564L350.049,166.376L350.609,166.537L351.186,166.929L353.271,169.414L353.935,170.046L354.748,170.349L355.484,170.51L358.317,169.753L359.284,174.809L360.438,176.938L364.329,180.443L364.55,181.101L364.516,181.742L364.177,182.351L363.821,182.897L363.734,182.986L363.361,183.88L363.294,185.241L363.583,186.267L364.328,187.626L364.684,188.421L364.905,189.163L365.905,196.104L365.992,197.787L365.821,199.196L365.448,200.164L364.515,201.886L363.565,203.18L363.276,204.01L362.92,205.39L362.766,207.916L362.92,209.051L363.156,209.69L363.445,209.903L368.863,212.243L369.544,212.693L370.222,213.35L371.155,214.868L371.562,216.22L371.867,218.185L372.242,219.096L372.834,219.751L373.464,219.996L374.26,220.071L375.03,220.009L377.05,219.557L378.05,219.636L381.042,220.353L385.522,219.77L386.318,219.826L387.054,220.14L387.953,220.964L388.446,221.959L388.768,222.928L389.174,225.856L389.191,228.172L389.446,229.578L389.92,231.399L391.601,236.259L391.822,237.213L391.752,237.637L391.617,238.026L391.482,238.362L391.023,239.042L389.241,240.897L389.073,241.407L389.039,242.291L389.308,242.83L389.613,243.226L391.361,244.444L392.198,245.275L393.251,246.549L394.691,248.698L395.117,249.765L395.184,250.47L394.862,250.95L393.063,252.701L392.808,253.203L392.683,253.773L392.683,254.671L392.808,255.531L393.217,257.461L393.251,258.051L393.2,258.65L392.996,260.403L392.022,260.36L389.795,260.924L387.77,261.909L387.239,262.738L388.494,264.754L389.29,265.564L391.854,267.227L395.574,268.441L396.339,268.942L400.331,272.794L401.214,273.428L402.657,273.841L403.419,274.236L404.217,274.896L405.241,276.118L405.393,276.957L405.155,277.809L404.866,278.42L404.731,278.917L404.664,279.651L404.594,283.05L404.471,283.982L404.216,284.973L403.672,286.584L403.232,288.337L403.086,289.699ZM304.923,269.384L308.901,269.19L311.344,268.565L311.989,267.343L312.124,266.963L312.158,266.533L312.124,266.159L311.922,265.609L311.684,265.094L311.463,264.486L311.379,264.05L311.531,262.528L311.464,261.968L311.346,261.496L310.836,260.466L310.718,260.136L310.735,259.859L310.87,259.514L311.209,259.025L314.253,256.017L315.169,254.801L315.422,254.183L315.475,253.641L315.321,252.786L314.847,251.965L314.219,251.433L311.922,250.683L311.174,250.265L310.801,249.92L310.411,249.404L310.038,248.663L309.307,247.609L308.901,247.264L308.492,247.026L305.926,246.343L305.111,245.945L304.637,245.23L304.262,244.136L303.788,243.49L302.429,242.511L300.683,240.676L300.115,240.261L299.42,239.97L298.232,239.739L292.831,240.366L278.431,244.568L277.974,244.894L277.719,245.354L277.635,245.919L277.736,246.581L277.907,247.189L277.957,247.71L277.803,248.134L277.363,248.64L276.752,248.993L276.124,249.149L275.581,249.046L272.861,247.93L272.216,247.847L271.555,247.93L266.373,249.841L264.302,251.054L264.05,251.335L263.93,251.599L263.896,251.828L263.874,252.094L264.05,252.411L264.389,252.808L266.407,254.037L267.035,254.592L267.324,254.914L267.495,255.253L267.444,255.65L267.307,256.055L267.002,256.737L266.851,257.17L266.748,257.584L266.748,258.05L266.868,258.438L267.207,258.946L269.905,262.331L270.198,262.825L270.691,263.907L271.268,265.941L271.504,266.53L271.742,266.973L272.014,267.37L274.967,270.789L275.256,271.447L275.374,272.055L275.307,273.242L275.24,273.76L275.17,274.904L275.273,275.889L275.424,276.16L275.616,276.354L275.9,276.565L276.261,276.718L277.466,276.925L282.054,275.043L289.915,273.645L294.806,272.084L295.467,271.703L297.078,270.181L298.843,268.87L299.913,268.554L300.646,268.447L300.935,268.483L301.156,268.58L301.478,268.773L303.022,269.186L304.923,269.384Z" style="fill:none;fill-rule:nonzero;stroke:black;stroke-width:0.5px;"/>
        <path d="M304.923,269.384L303.023,269.19L301.479,268.777L301.157,268.584L300.936,268.487L300.647,268.451L299.914,268.558L298.844,268.874L297.079,270.185L295.468,271.707L294.807,272.088L289.916,273.649L282.055,275.047L277.467,276.929L276.262,276.722L275.901,276.569L275.617,276.358L275.425,276.164L275.274,275.893L275.171,274.908L275.241,273.764L275.308,273.246L275.375,272.059L275.257,271.451L274.968,270.793L272.015,267.374L271.743,266.977L271.505,266.534L271.269,265.945L270.692,263.911L270.199,262.829L269.906,262.335L267.208,258.95L266.869,258.442L266.749,258.054L266.749,257.588L266.852,257.174L267.003,256.741L267.308,256.059L267.445,255.654L267.496,255.257L267.325,254.918L267.036,254.596L266.408,254.041L264.39,252.812L264.051,252.415L263.875,252.098L263.897,251.832L263.931,251.603L264.051,251.339L264.303,251.058L266.374,249.845L271.556,247.934L272.217,247.851L272.862,247.934L275.582,249.05L276.125,249.153L276.753,248.997L277.364,248.644L277.804,248.138L277.958,247.714L277.908,247.193L277.737,246.585L277.636,245.923L277.72,245.358L277.975,244.898L278.432,244.572L292.832,240.37L298.233,239.743L299.421,239.974L300.116,240.265L300.684,240.68L302.43,242.515L303.789,243.494L304.263,244.14L304.638,245.234L305.112,245.949L305.927,246.347L308.493,247.03L308.902,247.268L309.308,247.613L310.039,248.667L310.412,249.408L310.802,249.924L311.175,250.269L311.923,250.687L314.22,251.437L314.848,251.969L315.322,252.79L315.476,253.645L315.423,254.187L315.17,254.805L314.254,256.021L311.21,259.029L310.871,259.518L310.736,259.863L310.719,260.14L310.837,260.47L311.347,261.5L311.465,261.972L311.532,262.532L311.38,264.054L311.464,264.49L311.685,265.098L311.923,265.613L312.125,266.163L312.159,266.537L312.125,266.967L311.99,267.347L311.345,268.569L308.902,269.194L304.923,269.384Z" style="fill:none;fill-rule:nonzero;stroke:black;stroke-width:0.5px;"/>
    </g>
    <g id="Copyright">
    </g>
</svg>
